<?xml version="1.0" encoding="utf-8"?>
<!-- Generator: Adobe Illustrator 27.0.0, SVG Export Plug-In . SVG Version: 6.00 Build 0)  -->
<svg version="1.1" id="图层_1" xmlns="http://www.w3.org/2000/svg" xmlns:xlink="http://www.w3.org/1999/xlink" x="0px" y="0px"
	 viewBox="0 0 300 300" style="enable-background:new 0 0 300 300;" xml:space="preserve">
<style type="text/css">
	.st0{fill:#FFFFFF;}
	.st1{fill:none;stroke:#FFFFFF;stroke-width:3;stroke-linecap:round;stroke-linejoin:round;stroke-miterlimit:10;}
	.st2{fill:none;stroke:#FFFFFF;stroke-width:2;stroke-linecap:round;stroke-linejoin:round;stroke-miterlimit:10;}
	.st3{fill:none;stroke:#FFFFFF;stroke-width:3;stroke-miterlimit:10;}
	.st4{fill:none;stroke:#FFFFFF;stroke-width:3;stroke-linecap:round;stroke-miterlimit:10;}
	.st5{opacity:0.6;}
</style>
<g>
	<path class="st0" d="M89.7,61c7.3-6.9,20.2-6.3,28.8-2.2c-1.3,0.1-2.5,0-3.8,0C106.4,58.7,97.8,58.3,89.7,61L89.7,61z"/>
</g>
<g>
	<path class="st0" d="M85.6,156.3c-8-1.4-15.9-3.5-23.1-7.2c-21-10.9-33.8-33.2-20.4-55.4c1.9-2.9,4.2-6,7.4-7.5l-1.6,2
		c2.1-8.4,8.5-14.9,15.4-19.6c1-0.6,2-1.2,3-1.8l-1.1,1.5c1.6-6.3,4.6-12.2,9.5-16.5c3.6-2.7,6.6-5.1,11-6.3
		c2.3-0.5,4.6,0.4,6.5,1.7c3.5,2.6,4.9,6.8,6,10.7c0.1,0.2-0.2,0.3-0.3,0.1c-1.4-3.6-3-7.7-6.3-9.9c-4.1-2.6-7.3-1-10.9,1.5
		c-7,4.1-11.5,11.4-13.1,19.2c-3.7,2.5-7.5,5.1-10.4,8.6c-3.1,3.3-5.4,7.4-6.7,11.7c-2.6,1.3-4.4,4-6,6.4
		C32,116.1,44,137,63.2,147.8c7,3.9,14.7,6.4,22.4,8.4C85.7,156.2,85.7,156.3,85.6,156.3C85.8,156.3,85.7,156.3,85.6,156.3
		L85.6,156.3z"/>
</g>
<g>
	<path class="st0" d="M116.1,57.1c4-6.2,11.2-13.4,18.7-7.5c5.3,3.7,9.3,8.9,13.5,13.8c0.5,0.6,1.1,1.3,1.6,1.9
		c8.8,4.6,20.6,15.6,25.6,26.6c7.2,14.4,6.3,32.8-3.4,45.9c-1.8,2.6-4,5-6.3,7.2c-4.1,3.8-8.7,7.2-14.1,9
		c-6.7,2.2-13.6,3.3-20.5,3.9c-6.1,0.5-12.2,0.8-18.3,0.5c-0.1,0-0.2-0.1-0.2-0.2c0-0.1,0.1-0.1,0.1-0.1c12.1-0.5,24.4-1.8,36-5.3
		c5.9-1.7,10.9-5.4,15.2-9.6c8.7-8.4,13.9-20.5,13.2-32.6c-0.7-18.5-13.6-34.3-28.8-43.7c-2.4-2.7-4.5-5.7-6.9-8.4
		c-2.3-2.7-4.8-5.4-7.6-7.6c-1.4-1-3-2.1-4.7-2.2c-5.5-0.1-9.6,4.7-12.8,8.7C116.3,57.4,116,57.2,116.1,57.1L116.1,57.1z"/>
</g>
<path class="st1" d="M118.2,102.2c0,0,3-7,17-4"/>
<path class="st1" d="M70.2,96.2c0,0,8-2,15,5"/>
<g>
	<path class="st0" d="M98.6,97.2c2-3.3,8.6-3.4,9.2,0.9C104.5,97.4,101.9,98.3,98.6,97.2L98.6,97.2z"/>
</g>
<g>
	<path class="st0" d="M93.5,102.8c-1.3,1.5-2.7,4.8-1.4,6.5c1.7,1.7,4.2,3.3,6.6,2.2c1.7-0.8,2.8-2.5,3.3-4.2c0.1-0.4,0.6-0.6,1-0.5
		c0.2,0.1,0.4,0.2,0.5,0.5c0.6,1.7,1.7,3.4,3,4.2c1.3,0.8,2.9,0.7,4.4,0.5c1.2-0.2,2.3-0.4,3.2-1.1c1.5-1.5,1.1-4.1,1.3-6.2
		c0-0.2,0.2-0.2,0.3-0.1c1.3,2.6,2.3,6.4-0.2,8.7c-5.3,4.2-13.2,1.8-13.5-5.5l1.6,0.3c-1.2,1.7-2.5,3.3-4.4,4.3
		c-5.7,3.6-13.5-2.2-8.4-8.1c0.8-0.8,1.5-1.6,2.7-1.7C93.6,102.6,93.6,102.7,93.5,102.8C93.6,102.7,93.5,102.8,93.5,102.8
		L93.5,102.8z"/>
</g>
<path class="st2" d="M94.5,135.7c0,0,4,5,12,1"/>
<g>
	<path class="st0" d="M52.9,140.9c-6.8,5.2-13.5,10.6-18.3,17.6c-5.4,7.2-3.9,15.4,1.8,21.9c3.7,4.2,8.3,7.8,13.4,10.3
		c-5.7-1.4-10.9-4.6-15.1-8.7C18,164.8,37.1,148.5,52.9,140.9L52.9,140.9z"/>
</g>
<g>
	<path class="st0" d="M219.2,111.2c2.6,5.3,3.2,12.7-2.5,16.3c-3.2,2.1-7.6,3.4-11.1,1.2l2.1-0.9c-1.2,6.8-4.1,13-7.8,18.7
		c-6.2,9.3-15.2,16.8-25.5,21.1c10.9-7.2,20.4-16.6,26.2-28.3c2.3-4.4,4.1-9.2,4.9-14.1l1.7,1.3c1.6,1,3.7,0.9,5.5,0.4
		C220.6,124.9,221.1,117.9,219.2,111.2L219.2,111.2z"/>
</g>
<g>
	<path class="st0" d="M172,133.3c4.9-3.4,10-6.3,15.2-9.3c4-2.4,8.5-4.6,12-7.7c2-3.3,4.7-7.1,8.7-8.2c1.1-0.2,2.1-0.1,3.1,0
		c-1,0.2-2,0.3-2.8,0.7c-3.5,1.9-5,5.6-6.9,9c-2.1,2.5-4.8,4-7.4,5.7C186.9,127.5,179.7,130.9,172,133.3L172,133.3z"/>
</g>
<g>
	<path class="st0" d="M59.9,153.8c-11.1,17.1-14.4,37.4-6.4,56.4c2.4,6.1,5.7,11.8,9.4,17.4l-0.2,0.2c-5-4.6-9-10.2-11.9-16.4
		c-6.9-15.7-4.5-34.4,3.5-49.3c1.6-3,3.4-5.8,5.4-8.5C59.6,153.6,59.9,153.8,59.9,153.8L59.9,153.8z"/>
</g>
<g>
	<path class="st0" d="M176.4,166.1c10.1,11.8,12.2,28.7,9.6,43.7c-0.8,5.1-2.3,10-4,14.9l0.1-1.4c1,5,2.1,12.4,3.5,17.1
		c-0.1-0.1-0.2-0.3-0.3-0.4c0.5,0.5,1.3,1.3,1.8,1.9c2.1,2,2.5,5.8,0.5,7.9c-1.7,2-5.4,1.6-7,0.3c0.3,0.2,0.8,0.4,0.9,0.4
		c0.4,0,0.2,0,0.1,0c-0.1,0-0.3,0-0.4,0.1c-2.4,0.4-4.8,1-7.3,0.5c-1.8-0.6-3.5-1.4-5.3-2.1c-7.3-3.2-14.9-6-21.6-10.5
		c-0.6-0.5-1.2-0.9-1.6-1.6c0-0.1,0-0.2,0-0.2c0.1,0,0.2,0,0.2,0c2,2,5,2.9,7.5,4.1c5.3,2.2,10.8,4.2,16.2,6.1
		c1.4,0.5,2.7,1,4.1,1.5c2.7,1.2,5.7-0.4,8.5-0.5c0.4,0.1,0.4,0.2,0.5,0.3s0.3,0.1,0.5,0.2c0.6,0.1,1.4,0.2,2,0.1
		c1.7-0.6,1.6-3,0.6-4.2c-0.7-0.7-1.6-1.6-2.3-2.3c-0.3-0.4-0.4-0.7-0.5-1.1c-1.5-5.7-2.6-11.4-3.6-17.2c6.2-16.1,7.9-34.8,0.6-50.8
		c-1-2.3-2.2-4.5-3.7-6.4C176,166.1,176.2,165.9,176.4,166.1L176.4,166.1z"/>
</g>
<g>
	<path class="st0" d="M59.5,224.7c-3.7,2.6-6.4,7-5,11.5c0.8,2.7,1.6,5.5,2.3,8.2c0.1,0.3,0.1,0.6-0.1,0.9c-0.3,0.8-0.7,1.7-0.8,2.3
		c0,0.8,0.5,1.9,1.1,2.4c0.3,0.3,0.5,0.2,0.8,0.2c0.7-0.1,0.3-0.1,1.4-0.7c0.7-0.4,1.9-0.3,2.5,0c1.4,0.5,3,1.5,4.3,0.8
		c0.8-0.4,3-1.4,3.8-1.8l-0.6,0.7c0.6-1.5,1.3-2.9,2.2-4.3c0.5-0.7,1.3-1.8,2.4-2.1c3.4-0.3,7.3-2.1,10.6-3.2c-3.2,2-6.5,4.1-10.1,5
		c-1.3,1.2-2.1,3.6-2.6,5.4c-0.1,0.3-0.3,0.6-0.6,0.7H71l-2.5,1.3c-0.9,0.5-2,1.2-3.1,1.2c-2,0.1-3.4-0.7-5-1.2c0.1,0,0.1,0,0.1,0
		c0-0.1-0.7,0.6-1.4,0.8c-3.3,1.2-5.7-1.7-6.1-4.7c-0.2-1.5,0.6-3,1.2-4.2l-0.1,1c-0.4-1.9-0.8-3.7-1.2-5.6
		c-0.4-1.9-0.9-3.9-0.7-5.9C52.7,229.4,55.8,226.1,59.5,224.7L59.5,224.7z"/>
</g>
<g>
	<path class="st0" d="M79.5,237.7c21.4,5.6,43.9,6.2,65.6,2.3c1.5-0.3,2.9-0.5,4.4-0.7c-2.8,1-5.6,2.1-8.5,2.9
		C121.3,247.5,98,246.6,79.5,237.7L79.5,237.7z"/>
</g>
<g>
	<path class="st0" d="M108.8,114c-0.1,1-0.1,2.4,0.7,3c2.3,0.7,3.9-1.6,3-3.8c1.5,2.5-0.4,5.4-3.4,5c-1.8-0.6-2.1-2.6-2.3-4.2
		c-0.1-0.6,0.3-1,0.9-1.1C108.3,112.8,108.9,113.4,108.8,114L108.8,114z"/>
</g>
<g>
	<path class="st0" d="M170,100.7c1.9-5,7.4-8.8,12.8-8C178.1,94.7,173.9,97.6,170,100.7L170,100.7z"/>
</g>
<g>
	<path class="st0" d="M170,103.3c4.2-2.4,9.4-3.7,14.2-2.6C179.6,102.3,174.9,103.6,170,103.3L170,103.3z"/>
</g>
<g>
	<path class="st0" d="M52.2,95.7c-4.5-2.5-7.8-6.5-11.4-10c2.7,0.3,4.8,2.2,6.7,3.9C49.3,91.4,51,93.3,52.2,95.7L52.2,95.7z"/>
</g>
<g>
	<path class="st0" d="M49.7,99.7c-5.4-1.1-10.2-3.4-15-6C40.3,93.6,45.6,96.2,49.7,99.7L49.7,99.7z"/>
</g>
<g>
	<path class="st0" d="M96.3,154.3C96.4,154.3,96.4,154.3,96.3,154.3c-0.1,1.6-0.4,3.2-0.5,4.7c-0.1,1.1-0.2,2.7,0.3,3.6
		c0.2,0.3,0.3,0.2,0.4,0.2c1.3,0.1,3.2-0.4,4.6-1l-1.4,2c0.3-2.3,0.8-5,0.7-7.2c0-0.1,0-0.2,0.3,0c0.1,0.1,0.4,0.1,0.5,0.1
		c-1.8-0.3-3.4-1.2-4.8-2.3C96.4,154.5,96.3,154.4,96.3,154.3C96.3,154.4,96.2,154.4,96.3,154.3L96.3,154.3z M96.2,154
		c0.2,0,0.2,0,0.3,0.1c1.5,0.4,3.1,0.8,4.6,0.8c2.4,0.1,1.4,7.5,1.4,9.3c0,0.1-0.1,0.2-0.2,0.2c-2.6,1.3-7.6,2.7-8.8-1.1
		c-0.6-3.1,0.9-6,2.2-8.7c0.1-0.1,0.2-0.3,0.2-0.4C96.1,154.1,96.1,154.2,96.2,154L96.2,154z"/>
</g>
<g>
	<path class="st0" d="M102.2,155.2c0.9-5.6,9.3-2,10.9,1.5c0.8,1.4,0.8,3.1,0.7,4.7c-0.1,1.4-0.1,2.8-0.7,4.4
		c-1.9,4.9-8.7,1.7-11.4-0.7c-0.2-0.3-0.5-0.6-0.5-0.9c0.1,0.3,0.5,0.4,0.8,0.6c2.1,0.8,4.5,1.2,6.7,1.2c1.1-0.1,1.5-0.1,1.8-1.1
		c0.3-0.9,0.3-2.3,0.4-3.6c0.1-1.1,0.2-2.3-0.3-3.3c-0.7-1.8-2.8-3.1-4.6-3.9C104.7,153.2,103.1,153.8,102.2,155.2L102.2,155.2z"/>
</g>
<g>
	<path class="st0" d="M96.2,154.2c-2.4-0.5-6.2-1.6-7.9-1.3c0.1,0,0.1-0.1,0.1,0c-0.3,0.7-0.7,1.4-1,2.1c-0.5,1-1.4,2.6-1.6,3.6
		c0,1.9,1,4,2.4,5.3c0.4,0.3,0.6,0.6,1.2,0.7c1.8,0.2,3.8-0.3,5.6-0.7c-4.4,3.6-8.3,3.9-11.2-1.5c-0.6-1.3-1.1-2.7-0.9-4.2
		c0.3-1.8,1.3-3.2,2.1-4.6c0.2-0.3,1.1-1.8,1.3-2.1C88.4,148.6,94.2,152.6,96.2,154.2L96.2,154.2z"/>
</g>
<g>
	<path class="st0" d="M66.4,153l2.4,5.3c0,0.1,0,0.2,0,0.2c-6.1,6.5-9,15.6-8.9,24.3c0.2,12.8,6.1,26.4,14.1,36.3
		c8.9,10.9,21.9,13.4,35.4,12.8c13.5-0.5,33.8-0.8,43-11.8c4.1-5.2,4.2-12.1,4.2-18.5c-0.4-10.6-3.5-30-11.2-37.5
		c-0.1-0.1-0.1-0.3,0-0.4l6.1-7.5l-5.6,7.8v-0.4c1.8,1.4,3.1,3.4,4.3,5.3c5.5,10,8,21.3,8.8,32.6c0.3,6.7,0.2,14.5-4.3,20.2
		c-10,12.3-30.5,12.6-45,13.3c-14.4,0.5-28-2.3-37.5-14.1c-8.2-10.2-14-24.8-13.7-38c0.3-9.1,3.7-18.3,10.3-24.6v0.2L66.4,153
		L66.4,153z"/>
</g>
<path class="st1" d="M215.4,96c0,0,15.1-34.4,7.7-50.7c0,0,16.4-7.5,21.5-13.1c0,0,12.5,32.3-18.5,68.1"/>
<path class="st1" d="M227,110c2-5.4-0.7-11.5-6.2-13.5c-5.4-2-11.5,0.7-13.5,6.2L227,110z"/>
<line class="st1" x1="212.8" y1="104.6" x2="210.2" y2="111.2"/>
<g>
	<path class="st0" d="M220.2,112.2c-4.3-0.3-10-1.1-12.4,3.1c-0.9,2-1.7,4.4-2.1,6.7c-0.4,2.2-0.8,4.8,1.6,6.2
		c-1.4,0.1-2.7-1.1-3.3-2.3c-1.4-3.2-0.7-6.8,0.4-10C206.4,108.7,215,108.9,220.2,112.2L220.2,112.2z"/>
</g>
<line class="st3" x1="221.1" y1="107.8" x2="218.7" y2="112.7"/>
<path class="st1" d="M210.2,111.7"/>
<path class="st1" d="M261.5,150.6c1.2,1.3,1.8,2.6,1.8,4.1c0,5.8-10.2,10.5-22.7,10.5"/>
<path class="st1" d="M232.1,164.4c-8.4-1.5-14.3-5.3-14.3-9.8c0-5.8,10.2-10.5,22.8-10.5c6.3,0,12,1.2,16.1,3.1"/>
<ellipse class="st3" cx="240.5" cy="152.7" rx="7.6" ry="3.5"/>
<ellipse class="st3" cx="240.5" cy="150.7" rx="13.8" ry="6.3"/>
<path class="st3" d="M226.7,151.2c0,0-1,11.2,0,11.8"/>
<path class="st3" d="M254.1,151.7c0,0,0.8,10.2,0,11.3"/>
<path class="st3" d="M233.6,156.2c0,0,14.6,4.7,14.6,8.4"/>
<path class="st1" d="M250.2,189.2c2-3,0-7-9-11c-2.2-1-9.5-3.8-14-7c-10-7-9-17-9-17"/>
<path class="st4" d="M263.2,154.7c0,0-2.5,23-3.5,26s-6,12-22,11s-17-13-17-14"/>
<path class="st4" d="M252.3,163.6c-1.1-0.5-12.8,7.2-14.4,11.9"/>
<path class="st4" d="M225,191.8c0,0,5.5,1.6,9.4-0.5"/>
<path class="st4" d="M240.1,191.7c0,0,0.2,4.4-10.8,5.4"/>
<path class="st4" d="M243.1,191.6c0,0,5.1,5.1,11.1,4.8"/>
<path class="st4" d="M236.2,231.2c0,0,8.4-12.7,4.7-39.4"/>
<path class="st1" d="M217.2,154.2c0,0,1,6,2,18"/>
<line class="st4" x1="246.2" y1="230.2" x2="276.7" y2="200.7"/>
<path class="st1" d="M251.2,224.2c0,0-4-15,4-21l4,5c0,0,0-9,5-10l2,5l5-4"/>
<path class="st1" d="M251.2,225.2c0,0,6.8,5,19,0l-3-4c0,0,10.8,0,13-8l-4.5-1.5c0,0,7.5-3.5,4.9-14.5c0,0-3-1-5.2,0"/>
<line class="st4" x1="227.2" y1="231.2" x2="216.2" y2="217.2"/>
<line class="st4" x1="213.2" y1="212.2" x2="209.2" y2="206.2"/>
<path class="st1" d="M225.9,229.5c0,0,7.2-9.3,2.3-18.3l-5,3l0.4-5"/>
<path class="st1" d="M221.2,205.2l-3-5l-2.7,4.3c0,0-4.3-8.3-14.3-5.3c0,0-2,7,4,14h-4c0,0-1.6,7.1,9,6l-5,4c0,0,2.8,9.6,19.9,6.3"
	/>
<g class="st5">
	<path class="st0" d="M49.8,265.2l0.8,0.8c0.1,0.4,0,0.6-0.3,0.8c-1.6,0.4-3.2,0.7-4.9,0.7l-0.2,0.2c0.4,0.9,0.6,1.8,0.5,2.7
		l-2.6,2.6c0.6,0.6,1,1.3,1.2,2l-0.4,5.3c-0.1,0.8-0.4,1.5-0.6,2.2c-0.2,0.2-0.4,0.2-0.5,0.1c-0.3-1.1-0.5-2.2-0.5-3.4v-5.4
		c-1.1,0.8-2.2,1.6-3.4,2.3c-1.2,0.8-2.5,1.3-3.9,1.4l0-0.5l0.5-0.7l-0.2,0.3l0.1,0.1l3.5-3.2c1.8-1.8,3.5-3.7,5-5.8h-4.8
		c-1.5,0-3-0.2-4.4-0.6v-0.2c1.4,0.1,2.8,0.2,4.2,0.3c2.4,0.1,4.7,0,7.1-0.2c1.4,0,2.7-0.6,3.7-1.7L49.8,265.2z M40.7,273.9
		l-0.4,0.3v0.2l0.5-0.3L40.7,273.9L40.7,273.9z M43.2,269.6c-0.7,0.9-1.4,1.7-2.1,2.5v0.2c0.6-0.7,1.2-1.3,1.9-2l0.3-0.5L43.2,269.6
		z M42.9,273.4v0.3H43L42.9,273.4L42.9,273.4z M43,275.3l-0.1,0.4l0.1,1.6V275.3L43,275.3z M43.2,269.5v0.2l0.1-0.1L43.2,269.5z
		 M44.4,267.5c-0.2,0.2-0.3,0.4-0.2,0.6l0.2-0.1l0.3-0.5H44.4z M47.1,271.5c0.2,0.1,0.5,0.2,0.7,0.3l1.3,1.1
		c0.7,0.8,1.3,1.7,1.8,2.6c0.1,1-0.1,1.9-0.7,2.6l-0.6,0.2c-0.4,0-0.7-0.1-1-0.4v0.2c-0.2,0.2-0.4,0.2-0.6-0.1
		c-0.4-1.9-0.8-3.9-1.1-5.8l0.2-0.2l-0.2-0.3L47.1,271.5z M47.2,272.1l0.2,0.3l0.1-0.1L47.2,272.1L47.2,272.1L47.2,272.1z
		 M48.4,275.8v0.2V275.8L48.4,275.8z M48.4,276l0.1,0.8l0.1,0.1C48.6,276.6,48.6,276.3,48.4,276L48.4,276z M49.2,266.1l-0.5,0.3h0.5
		V266.1L49.2,266.1z"/>
	<path class="st0" d="M67,263.8l0.8,0.6c0.5,0.5,0.8,1.1,0.9,1.8c-0.3,1.2-0.8,2.2-1.7,3c-0.8,0.9-1.8,1.6-2.8,2.2v0.2
		c1.3,0.1,2.6,0.1,4-0.1c1.9-0.1,3.8-0.4,5.7-0.8l-1.1-1.9l0.1-0.2c0.6,0,1.2,0,1.9,0.1c0.6,0.2,1.2,0.4,1.8,0.7
		c0.4,0.6,0.5,1.2,0.4,1.9c-0.2,0.5-0.5,0.9-0.7,1.3l-0.4,0.1c-0.3-0.1-0.6-0.2-0.9-0.3c-0.2-0.3-0.5-0.6-0.7-1l-2.4,0.3
		c0.4,1.1,0.5,2.2,0.5,3.5c-0.5,2.1-1,4.1-1.4,6.2l0.2,0.3c0.5,0.3,1,0.5,1.6,0.4l2.7-0.3c0.3-0.7,0.5-1.5,0.7-2.3l0.2-0.1l0.2-0.3
		c0.2,0.6,0.5,1.2,0.7,1.8l0.1,0.8c-0.9,0.7-2,1.1-3.2,1.1c-1.6,0.2-3.1,0.1-4.5-0.5c-0.4-0.2-0.5-0.6-0.4-1.1
		c0.5-3.1,1.1-6.3,1.7-9.4c-1.7,0.2-3.3,0.4-5,0.3l-0.3,0.1c0.8,1,1.1,2.2,0.9,3.5c-0.4,1.8-1.2,3.4-2.4,4.8c-0.5,0.5-1,0.9-1.5,1.3
		h-0.3c-0.2-0.3-0.2-0.6,0-0.9c0.8-1.1,1.4-2.3,1.8-3.6c0.4-1.6,0.5-3.4,0.4-5.1l-1.4-0.2c-0.6,0.4-1.1,0.5-1.6,0.3
		c0.1-0.2,0.1-0.4,0-0.6c2.1-2.3,3.9-4.9,5.3-7.7c-0.1-0.1-0.1-0.2-0.1-0.3L67,263.8z M64.3,279.2c-0.2,0.2-0.3,0.4-0.3,0.7l0.4-0.4
		L64.3,279.2L64.3,279.2L64.3,279.2z M67,264.2v0.5l0.4-0.3L67,264.2L67,264.2L67,264.2z M67.9,265.2l-0.1,0.3l0.2,0.1
		C68.1,265.5,68,265.4,67.9,265.2L67.9,265.2z M71.5,272.1c-0.1,0.1-0.1,0.2,0,0.4l0.2-0.1L71.5,272.1L71.5,272.1z M73.6,269.1v0.1
		H74v-0.1H73.6z M74.6,269.8l0.6,0.6l0.2-0.2l-0.3-0.3L74.6,269.8L74.6,269.8z M76.2,269.9v-0.1h-0.1L76.2,269.9z M76.2,269.9
		l0.1,0.2l0.1-0.2H76.2z M76.7,279.7v0.5h0.1L76.7,279.7L76.7,279.7z"/>
	<path class="st0" d="M89.8,270.9l0.5,0.3c0.2,0.6,0.3,1.2,0.3,1.8c-0.4,3.1-0.4,6.2-0.1,9.2c0.2,0.1,0.5,0.1,0.6-0.3l0.5-0.7
		c0.1,0,0.3,0,0.4-0.2c-0.1,1.3-0.6,2.4-1.6,3.2l-0.3,0.2l-1-0.4c-0.5-2-0.8-4-0.8-6.1l-0.1-5.9c-1,0.1-1.9,0-2.9-0.3
		c-0.1-0.1-0.1-0.2,0-0.3c1.1,0,2.3,0,3.4-0.2l0.8-0.4L89.8,270.9L89.8,270.9z M86.3,264.8c0.5,0,1.1,0.1,1.6,0.3
		c0.7,0.4,1.4,0.8,1.9,1.3l0.4,0.7c0,0.5,0,1-0.2,1.5c-0.4,0.2-0.9,0.3-1.3,0.4l-0.1,0.3h-0.4l-1.8-3l-0.1-0.5l0.4,0.3l0.1-0.3
		c0.1-0.1,0.2-0.2,0.2-0.4l-0.9-0.2L86,265L86.3,264.8z M88.3,266.9l-0.1,0.1l0.3,0.5l0.2,0.1l0.1-0.1L88.3,266.9L88.3,266.9z
		 M88.8,272l-0.2,0.2l0.1,0.7h0.1V272L88.8,272z M94.4,263.9l0.5,0.4c0.3,0.7,0.6,1.4,0.7,2.1l0.1,2.2l8.1,0.1l0.2-0.1l0.1-1.2
		l0.2-0.3l0.3-0.1c0.5,0.5,0.9,1,1.3,1.6c0.1,0.3,0,0.5-0.2,0.7l-0.8,0.2h-5.6c0.8,1,1.3,2.1,1.6,3.4c0,1.2,0.1,2.4,0.3,3.6
		c1.4,0.1,2.8,0,4.2-0.3l0.1-1l0.3-0.4c0.7-0.1,1.4,0.1,2,0.5l0.4,0.5c0.1,0.4,0,0.7-0.3,0.8c-2.2,0.3-4.4,0.5-6.6,0.6l-0.1,3.8
		c-0.2,0.9-0.3,1.9-0.5,2.7l-0.3,0.1c0,0.4-0.1,0.6-0.3,0.9h-0.3l-0.3-0.4c-0.2-2.3-0.5-4.6-0.8-6.9l-4.1-0.1
		c-0.8,0.1-1.6,0-2.3-0.3c2-0.2,4-0.3,6-0.4l0.2-0.1c-0.4-2.4-0.5-4.7-0.4-7.1c-0.8-0.1-1.7-0.2-2.5-0.2c-0.2,1.8-0.8,3.4-1.7,4.8
		l-0.9,0.8h-0.2c-0.3-0.7-0.3-1.4-0.1-2.3c0.2-2.8,0.5-5.6,0.9-8.4l0.4-0.2L94.4,263.9z M93.4,272.9v0.4h0.2v-0.4H93.4z M93.9,264.2
		l-0.2,0.1v0.7h0.1L93.9,264.2L93.9,264.2z M99.4,270.5l-0.2,0.1l0.2,1.2h0.2l0.1-0.4L99.4,270.5L99.4,270.5z M104.7,267.9v0.6h0.4
		l-0.3-0.5L104.7,267.9z M106.1,275.3v0.6c0.4,0,0.7,0,1.1-0.1v-0.2l-0.7-0.4h-0.4V275.3z"/>
	<path class="st0" d="M116.4,263c0.6,0.6,1,1.2,1.5,1.9c0.4,0.9,0.6,1.9,0.6,2.9c-0.2,0.8-0.5,1.5-0.9,2.2c-0.8,1.1-1.5,2.1-2.2,3.2
		c0.7,0.8,1.2,1.6,1.7,2.5c-0.1,2.5-0.2,5.1-0.2,7.6c-0.1,0.5-0.2,0.9-0.4,1.2l-0.2-0.1c-0.2-0.7-0.4-1.4-0.5-2.2
		c-0.5-2.7-0.8-5.4-1.1-8.2c-0.6,0.8-1.3,1.5-1.9,2.2c-0.4,0.3-0.8,0.4-1.2,0.4c-0.2-0.3-0.2-0.6,0.1-1c1.2-2.3,2.3-4.6,3.4-7
		l0.9-2.7c0.2-1.1,0.3-2.1,0.3-3.1L116.4,263z M115.1,273.6l-0.2,0.1l0.1,0.5l0.3-0.2L115.1,273.6L115.1,273.6z M116.2,275.2
		l-0.1,0.1l0.1,0.1V275.2L116.2,275.2z M116.4,275.4l-0.1,0.1l0.2,0.9h0.1C116.6,276.1,116.5,275.8,116.4,275.4L116.4,275.4z
		 M116.7,263.7l-0.2,0.2l0.2,0.2V263.7L116.7,263.7z M117.9,266.9l-0.2,0.2c-0.2,1-0.4,1.9-0.6,2.7C117.7,269,118,268.1,117.9,266.9
		L117.9,266.9z M117.4,265.3v0.4h0.2v-0.4H117.4z M124.3,270.8c0.1,0.1,0.3,0.1,0.5,0.2l1.3,1.3l0.4,0.7c0,1.1,0.1,2.1,0.2,3.1
		l4.1,0.1l0.6-0.1c0-0.4,0.2-0.7,0.5-1c0.2,0,0.4,0,0.7,0.1l0.7,0.5v0.4c-0.6,0.4-1.3,0.7-2,0.7h-4.7c-0.1,0.9-0.1,1.8-0.1,2.7
		c-0.2,1-0.4,1.9-0.6,2.8h4.2l0.2-0.1c-0.3-0.4-0.2-0.8,0.1-1.2c0.6,0.1,1.2,0.3,1.7,0.6c0.1,0.3,0,0.5-0.2,0.7c-2,0.8-4,1-6.2,0.7
		c-1.5,0.1-3-0.1-4.4-0.7l0.3-0.2c1.2,0.1,2.4,0.2,3.6,0.2L125,281c-0.2-1.4-0.4-2.8-0.5-4.3l-6.1-0.1l-0.2-0.2l0.1-0.2
		c1.9-0.2,3.9-0.3,5.9-0.3l0.2-0.1C124.2,274.2,124.1,272.5,124.3,270.8z M128.1,263.1c0.6,0.5,1.1,1.2,1.4,1.9
		c0.1,1.2-0.4,2.2-1.4,2.9l-3.2,2.5c-1.1,0.5-2.1,0.9-3.2,1.4c-0.7,0.3-1.5,0.4-2.3,0.4v-0.3l0.3-0.1c-0.2-0.1-0.2-0.3-0.2-0.5
		c1.1-0.4,2.1-1,3-1.8l1.8-1.7l2.9-3.4l0.3-0.6l0.4-0.2l-0.2-0.3h0.4V263.1z M121.3,271.2l-0.9,0.4l0.1,0.1c0.3,0,0.6-0.1,0.9-0.3
		v-0.1L121.3,271.2z M124.2,270l-0.2,0.1v0.2L124.2,270L124.2,270z M124.6,271.6v0.2l0.2-0.2H124.6z M127.6,264.6l-0.5,0.9
		c-0.7,0.8-1.3,1.7-1.9,2.5l0.2-0.2l1.5-1.7C127.2,265.7,127.5,265.2,127.6,264.6L127.6,264.6z M125.3,272.2l-0.1,0.3h0.2
		L125.3,272.2L125.3,272.2z M128.5,263.9c0,0.4,0,0.7,0.1,1.1c0.2,0.3,0.4,0.6,0.5,0.9c0-0.3,0-0.6-0.1-1L128.5,263.9L128.5,263.9z
		 M130.7,281.5l0.1,0.6l0.5-0.2l0.1-0.2l-0.5-0.3h-0.2V281.5z M132.2,275.6l-0.2,0.2h0.3l0.1-0.1l-0.1-0.1H132.2z"/>
	<path class="st0" d="M142.2,262.5c0.6,0.6,1,1.2,1.4,1.9c0.3,0.9,0.5,1.8,0.6,2.6c-0.7,2.1-1.7,3.9-3.2,5.6
		c0.7,0.8,1.3,1.6,1.7,2.6c-0.1,2.5-0.2,5-0.2,7.5c-0.1,0.5-0.2,0.9-0.4,1.2l-0.2-0.1c-0.2-0.6-0.4-1.3-0.5-2
		c-0.5-2.7-0.8-5.4-1-8.2l-0.1-0.1c-0.6,0.8-1.2,1.6-1.9,2.3l-0.9,0.4l-0.3-0.1c1.2-2.7,2.4-5.5,3.7-8.4l0.8-2.7
		c0-0.7,0.1-1.5,0.4-2.2c-0.1-0.1-0.2-0.2-0.2-0.4L142.2,262.5z M140.7,273c-0.1,0.2-0.1,0.4,0.1,0.6l0.3-0.2l-0.2-0.3L140.7,273z
		 M141.9,274.5v0.2V274.5L141.9,274.5z M142,274.8l-0.1,0.1c0,0.4,0.1,0.7,0.3,0.9l0.1-0.3L142,274.8L142,274.8z M142.3,263.2v0.3
		h0.1v-0.3H142.3z M142.9,268.8l-0.3,0.4l0.1,0.2C142.9,269.2,143,269,142.9,268.8L142.9,268.8z M143.1,264.7v0.4h0.2L143.1,264.7
		L143.1,264.7z M145.2,271.4c0.6,0.2,1.2,0.3,1.8,0.5c0.4,0.5,0.8,0.7,1.3,0.7h2.2c1-0.1,2-0.4,2.9-0.9l0.5,0.2
		c0.3,0.8,0.4,1.7,0.3,2.6c-0.2,1.1-0.5,2.2-0.9,3.2H153l-0.2-0.2h-0.2c0,0.2-0.1,0.4-0.3,0.5l-0.3-0.1l-0.2-0.5
		c-1.4,0.2-2.8,0.1-4.1-0.3l-0.3,0.5c-0.5,0.2-0.9,0.1-1.2-0.2c-0.6-1.3-1-2.7-1.2-4.1c-0.1-0.4-0.1-0.8,0.1-1.3l0.1,0.5l0.2-0.1
		V272l-0.4-0.2l-0.3-0.3L145.2,271.4z M158.1,266.9c0.5,0.1,1,0.3,1.5,0.6v0.5c-0.4,0.4-0.9,0.7-1.5,0.7l-2.5,0.1
		c1.2,1,1.9,2.3,2.2,3.8c0.2,2.9,0.3,5.8,0.3,8.6c-0.2,1.2-0.5,2.3-0.9,3.3c-0.5,0.4-0.9,0.5-1.4,0.1c-0.3-0.5-0.7-1-1.1-1.5
		l0.2-0.2c0.4,0.1,0.8,0,1.2-0.1c0-2.1,0-4.1-0.1-6.2c-0.3-2.7-0.7-5.3-1.3-8c-2.4-0.2-4.8-0.3-7.2-0.4c-0.8,0.1-1.5,0-2.1-0.3
		c1.6-0.1,3.2-0.2,4.8-0.2c2.2,0.2,4.5,0.3,6.8,0.3c0.1-0.4,0.3-0.7,0.6-1L158.1,266.9z M152.2,273l-0.9,0.2
		c-1.2,0.1-2.4,0.1-3.5-0.1l0.1,3.4c0.8,0.2,1.6,0.3,2.5,0.3c0.6,0.1,1.3,0,1.8-0.3L152.2,273L152.2,273z M152.7,272.5
		c-0.1,0.2-0.1,0.3,0.1,0.4l0.2-0.4H152.7z M155.7,283.5v0.2h0.2v-0.2H155.7z M156.6,270.9v0.2V270.9L156.6,270.9z M156.7,271.2
		c-0.1,0.2-0.1,0.3,0.1,0.4v-0.3L156.7,271.2z M156.9,271.5c-0.1,0.2-0.1,0.4,0.1,0.5L156.9,271.5L156.9,271.5z M157.1,272.1
		l-0.1,0.5h0.1V272.1L157.1,272.1z M157.8,267.6l-0.2,0.4c0.1,0.1,0.2,0.1,0.4-0.1v-0.3H157.8z M158.6,267.5
		c-0.1,0.2-0.1,0.3,0.1,0.3l0.2-0.1l-0.2-0.2L158.6,267.5z"/>
	<path class="st0" d="M172.2,262.8h0.3c1,1.4,2,2.9,2.8,4.4v2.5c-0.3,1.6-0.6,3.1-1.1,4.6c1.5,1.5,3.2,2.9,5.1,4.1l2.6,1.5
		c0.9,0.5,1.9,0.8,2.8,1h0.6c0.2,0.2,0.2,0.4,0.1,0.6l-0.7,0.7c-0.4,0.1-0.8,0.3-1.1,0.5c0,0.2,0,0.3-0.1,0.4
		c-1.4-0.3-2.6-0.8-3.7-1.7l-2.3-1.9l-1.7-1.8c-0.8-0.9-1.5-1.8-1.9-2.8c-0.8,1.8-1.8,3.5-2.9,5.1c-0.8,0.9-1.6,1.8-2.4,2.7
		c-0.5,0.3-1,0.4-1.6,0.3c0-0.7,0.2-1.3,0.6-1.8c-0.2,0.2-0.2,0.5-0.2,0.7c1.5-2.4,2.6-5,3.4-7.8l0.7-3.5c0.1-2.2,0.2-4.5,0.3-6.7
		l0.2-1.2L172.2,262.8z M168.6,281.6l-0.7,0.5v0.1l0.3-0.1l0.5-0.5H168.6z M169.5,280.4l-0.1,0.1h0.2L169.5,280.4z M169.9,279.9
		c-0.2,0.2-0.4,0.4-0.4,0.6l0.4-0.5V279.9z M170.8,276.3v0.2V276.3L170.8,276.3z M171.1,275.4l-0.2,0.6h0.1l0.2-0.6H171.1z
		 M170.9,276.1v0.2V276.1L170.9,276.1z M171.8,272.5v0.2l0.1-0.1L171.8,272.5z M172.2,270.1c-0.2,0.8-0.3,1.5-0.3,2.3l0.2-0.7
		L172.2,270.1L172.2,270.1z M172.3,263.5v0.5h0.1v-0.5H172.3z M172.8,264.4l-0.1,0.1l0.2,0.6h0.4L172.8,264.4L172.8,264.4z
		 M173.7,265.7v0.2V265.7L173.7,265.7z M173.7,265.8c0.2,0.6,0.4,1.3,0.6,1.9l0.1,2.7c0.1-0.9,0.2-1.8,0.2-2.7
		C174.5,267.1,174.2,266.4,173.7,265.8L173.7,265.8z M175.1,275.9l0.5,0.5h0.2l-0.5-0.5H175.1z"/>
	<path class="st0" d="M191.2,270.8c0.5,1.1,1,2.3,1.4,3.4c0.1,0.8,0,1.5-0.3,2.2l-0.9,0.6c-0.4,0.2-0.8,0.2-1.2,0
		c-0.1-1.7-0.1-3.4,0.1-5.2c0-0.4,0.1-0.8,0.3-1.2L191.2,270.8z M193.7,263.6l0.2,0.2l0.4,0.1c0.5,0.7,0.8,1.4,1.1,2.2
		c0.2,1.9,0.4,3.9,0.3,5.8l1.8,0.5l0.6,0.4c0.2,0.4,0.3,0.8,0.3,1.2l-0.3,0.5c-0.4,0.3-0.8,0.4-1.1,0.2l-1.3-1.5h-0.1
		c-0.1,2.6-0.2,5.2-0.3,7.8c-0.2,1.2-0.4,2.3-0.3,3.4c-0.2,0.2-0.3,0.2-0.5,0.1c-0.4-1.1-0.6-2.2-0.6-3.5
		c-0.1-5.7-0.2-11.4-0.4-17.1L193.7,263.6L193.7,263.6L193.7,263.6z M200.1,263.2l0.5,0.3c0.6,0.6,1.1,1.3,1.5,2
		c0.2,0.9,0.4,1.8,0.5,2.7h7.4l0.3-0.8c0.6,0,1.1,0.2,1.6,0.5l0.1,0.4l-0.3,0.4l-0.8,0.2h-4.7l-0.1,0.1c0.4,0.4,0.7,0.8,1,1.3
		c0.1,2.1,0.2,4.2,0.3,6.3c0.9,0.1,1.9,0,2.9-0.1c-0.1-0.5,0-0.9,0.4-1.3h1l0.6,0.2l0.5,0.5c0.1,0.5,0,0.8-0.3,1.1
		c-1.8,0.3-3.5,0.4-5.3,0.5c-0.3,2.1-0.5,4.2-0.5,6.3c-0.2,0.2-0.3,0.5-0.4,0.9H206c-0.6-0.6-0.9-1.4-0.8-2.3
		c-0.1-1.7-0.3-3.3-0.4-5c-1.4,0-2.9-0.1-4.3-0.2c-0.9-0.1-1.8-0.3-2.6-0.6v-0.2l0.3-0.1c2.1,0.3,4.3,0.4,6.5,0.4l0.1-0.2
		c-0.2-2.5-0.2-4.9-0.2-7.5h-2c-0.1,2.1-0.7,4-1.7,5.7l-0.4,0.3c-0.1,0.2-0.2,0.5-0.3,0.7h-0.3l-0.2-0.3c0.1-2.3,0.1-4.6,0.1-6.9
		c-0.2-1.4-0.3-2.8-0.2-4.2l0.2,0.3c0.2,0,0.3,0,0.5-0.1l0.2-0.3C200,264,199.9,263.7,200.1,263.2L200.1,263.2L200.1,263.2z
		 M200.5,271.5c-0.1,0.5-0.1,0.9,0.1,1.3c0.1-0.4,0.2-0.8,0.1-1.2L200.5,271.5z M204.9,268.9l-0.1,0.2h0.2L204.9,268.9L204.9,268.9z
		 M205.9,269.8c-0.1,0.4-0.1,0.6,0.1,0.9h0.2c0-0.3,0-0.6-0.2-0.8L205.9,269.8z M210.7,267.8l-0.1,0.2c0.1,0.1,0.3,0.1,0.4,0
		L210.7,267.8L210.7,267.8z"/>
	<path class="st0" d="M236.6,267.4l0.6,0.3c0.1,0.2,0.2,0.4,0.3,0.7l-0.3,0.4c-0.8,0.5-1.6,0.7-2.4,0.8c-1.3,0-2.6,0-3.9,0.1
		c0.4,0.7,0.7,1.4,0.9,2.1c0.1,1.3,0.1,2.6,0.1,3.9h0.8c0.6,0,1.2-0.1,1.8-0.4c-0.1-1.4,0-2.9,0.2-4.4c0.2-0.1,0.4-0.3,0.6-0.5h0.6
		c0.7,0.8,0.9,1.8,0.8,2.8c-0.2,1-0.5,1.9-1.1,2.6c-1.3,0.3-2.6,0.5-3.9,0.6c-0.5,1.3-1.1,2.4-1.8,3.5c-0.6,0.6-1.1,1.2-1.5,1.7
		l0.1,0.2c1.7,0.3,3.3,0.4,5.1,0.3c1.9-0.1,3.8-0.2,5.6-0.3c0,0.6-0.2,1.1-0.5,1.6c-0.9,0.5-1.9,0.8-2.9,1.1c-1.4,0.1-2.8,0.1-4.2,0
		c-3.5-0.6-6.9-1.7-10.1-3.4c-1.1-0.3-2-0.2-3,0.3l-0.2-0.3l0.7-0.6l1.2-1.5c0.6-0.9,1.1-1.9,1.6-2.9c-0.6,0-1.2-0.1-1.7-0.5
		l1.2-3.4v-0.3l-2.2-0.1c-0.8,0-1.5-0.3-2.2-0.7l0.2-0.2c1.6,0.2,3.3,0.2,5,0.2c0.4-0.4,0.8-0.6,1.4-0.6c0.4,0.5,0.5,1.1,0.3,1.8
		c-0.7,1.1-1.3,2.2-2,3.1h1.1l0.4,0.2c0.2,0.6,0.3,1.1,0.2,1.7c-0.6,1-1.3,1.9-2,2.7c2.2,0.7,4.4,1.3,6.6,1.8h0.5
		c-0.4-0.2-0.5-0.5-0.4-0.8c0.7-1.4,1.1-2.9,1.4-4.4c-0.6,0-1.2,0-1.8-0.2l-0.5,0.6c-0.2,0.2-0.5,0.2-0.6,0c-0.6-1.1-0.9-2.3-1-3.6
		c-0.2-0.7-0.2-1.4,0.1-2.1h0.2c0,0.4,0.1,0.6,0.3,0.9l0.2-0.4c0.1-0.1,0.3-0.1,0.5,0.1c0.1,0.4,0.2,0.8,0.2,1.3l0.2,0.3
		c0-0.8-0.2-1.6-0.6-2.3l-0.3,0.1c-0.1-0.2,0-0.4,0.3-0.6l0.6,0.3c0.4,0.6,0.7,1.3,0.8,2v2.9l1.7,0.1l0.2-0.1c0.2-2,0.3-4,0.3-5.9
		c-1.8,0-3.5-0.1-5.2-0.3c-0.6,0-1.1-0.1-1.6-0.4l0.4-0.1c3.9,0.1,7.8,0.1,11.7-0.2c-0.1-0.4,0-0.8,0.3-1.2l0.3-0.2L236.6,267.4z
		 M218.9,264.9c0.6,0.1,1.2,0.2,1.7,0.3c0.7,0.3,1.3,0.7,1.8,1.3c0.6,0.7,0.7,1.5,0.4,2.3l-0.5,0.4c-0.5,0.2-1,0.1-1.4-0.1l-0.8-1.2
		c-0.5-0.7-0.9-1.5-1.2-2.4l-0.3-0.2l-0.1-0.2L218.9,264.9z M219.2,265.4l-0.1,0.1l0.2,0.2L219.2,265.4L219.2,265.4z M219.3,265.8
		l0.3,0.3l0.1-0.1l-0.2-0.2L219.3,265.8L219.3,265.8z M221.6,272.9v0.3l0.1-0.2L221.6,272.9z M222.2,271.7l-0.2,0.1
		c-0.2,0.4-0.2,0.8-0.2,1.2C221.9,272.6,222.1,272.2,222.2,271.7L222.2,271.7z M221.9,277v0.2V277L221.9,277z M222.1,276.1
		c-0.1,0.2-0.1,0.5-0.1,0.7h0.1l0.3-0.7H222.1z M222.2,280.4v0.2h0.2l-0.1-0.1L222.2,280.4z M222.3,280.7l0.2,0.1l0.1-0.1H222.3z
		 M222.9,271l-0.2,0.2l0.2,0.2v0.4c-0.1,0.3-0.2,0.6-0.2,1c0.4-0.5,0.5-1,0.4-1.6L222.9,271z M222.7,280.8l0.2,0.1l0.1-0.1H222.7z
		 M223.9,281.2v0.2l0.1-0.1L223.9,281.2z M224.7,281.4l-0.2,0.1l0.3,0.1L224.7,281.4L224.7,281.4z M225,281.6v0.1l0.2,0.1l0.1-0.1
		L225,281.6z M226.3,264.1l1.2,0.6c0.6,0.5,1,1,1.2,1.7c0.2,0.8,0,1.4-0.4,1.9c-0.5,0.1-0.8-0.1-1.1-0.5c-0.7-1-1.3-2-1.8-3.2
		c0-0.2,0.1-0.4,0.3-0.5H226.3z M226.6,265.1l1.1,1.6h0.2v-0.3l-0.4-0.6l-0.7-0.7H226.6z M230.2,276.6l-0.3,1.4l0.1,0.1l0.5-1.2
		v-0.3H230.2z M230.4,269.7l-0.2,0.1l0.2,1.2c0,1.6,0,3.2-0.1,4.7c0.1,0.1,0.3,0.1,0.4-0.1C230.8,273.6,230.7,271.7,230.4,269.7
		L230.4,269.7z M233.8,263.3c0.2,0,0.5,0.1,0.8,0.3c0.4,0.6,0.5,1.2,0.4,1.8c-0.3,0.8-0.8,1.5-1.3,2.2l-0.6,0.5h-0.4
		c-0.3-0.1-0.4-0.4-0.5-0.7c0.4-1,0.6-2,0.5-2.9c0-0.4,0.2-0.7,0.5-1L233.8,263.3z M233.6,263.9c-0.1,0.1-0.1,0.2-0.1,0.3h0.1V263.9
		L233.6,263.9z M235.7,271c-0.1,0-0.3,0-0.4,0.1c-0.2,0.3-0.3,0.6-0.1,0.9l0.2-0.6l0.4-0.3L235.7,271z M236.5,268
		c-0.2,0-0.4,0-0.5,0.1v0.5l0.6-0.2l0.2-0.2L236.5,268z"/>
	<path class="st0" d="M247.6,262.4l0.6,0.6c0.6,0.8,1,1.6,1.3,2.5c0.2,0.8,0.2,1.7,0.1,2.5c-0.9,1.7-1.9,3.2-3,4.7
		c0.4,0.5,0.8,1,1.2,1.5c0.3,0.5,0.5,1.1,0.6,1.7c-0.2,2.3-0.3,4.6-0.2,6.8c-0.1,0.5-0.2,0.9-0.4,1.4l-0.2-0.1
		c-0.1-0.6-0.3-1.2-0.5-1.8c-0.5-2.8-0.9-5.7-1.1-8.5l-1.9,2.2c-0.4,0.2-0.8,0.4-1.2,0.4c-0.2-0.1-0.3-0.3-0.1-0.6
		c1.4-2.6,2.6-5.3,3.7-8.1l0.7-2.6c0.2-0.9,0.2-1.7,0.2-2.6H247.6z M246.3,273c-0.1,0.2-0.1,0.4,0.1,0.6l0.3-0.3l-0.2-0.3L246.3,273
		z M247.5,274.6v0.2V274.6L247.5,274.6z M247.6,274.9l-0.1,0.1l0.2,0.9h0.1C247.8,275.5,247.8,275.2,247.6,274.9L247.6,274.9z
		 M247.8,263.2v0.4h0.1v-0.4H247.8z M249.1,266.3c-0.2,0.8-0.5,1.5-0.6,2.3l-0.3,0.5l0.2,0.1c0.3-0.5,0.6-1.1,0.8-1.7L249.1,266.3
		L249.1,266.3z M248.7,264.7c-0.1,0.2-0.1,0.4,0.1,0.5l0.1-0.1l-0.1-0.4H248.7z M252.1,263.8l0.7,0.5c0.5,0.5,0.9,1.1,1.2,1.7
		l0.1,0.9c-0.2,0.8-0.3,1.5-0.4,2.3c2.3,0.1,4.6,0.1,7-0.1c1.2,0,2.3-0.3,3.3-1c0.5-0.1,1-0.1,1.4,0.2c0,0.6,0,1.2-0.1,1.8
		c-0.5,1.5-1.2,3-2,4.4l-0.3,0.1l-0.2-0.3c-0.2,0.1-0.4,0.1-0.6,0c0.2-1.5,0.4-3.1,0.5-4.7l-2.1,0.3c-2.4,0-4.8,0-7.1,0.1
		c-0.7,1.8-1.5,3.5-2.4,5.2l-0.3,0.2c-0.3-0.2-0.4-0.6-0.4-1c0.7-3.3,1.1-6.6,1.4-9.9h0.2v2h0.1c0-0.5,0-1,0.2-1.5l0.4,0.2l0.1-0.1
		l-0.9-0.9v-0.3h0.2V263.8z M252,276.1c0.5,0,1,0.1,1.4,0.4c0.4,0.5,0.6,1.1,0.7,1.7c-0.3,1.5-0.7,3-1.3,4.4l-0.3,0.2
		c-0.2-0.2-0.3-0.5-0.4-0.9C251.9,279.8,251.9,277.9,252,276.1z M252.2,276.5l-0.1,0.2l0.1,0.5l0.7-0.4l-0.2-0.2l-0.4-0.2
		L252.2,276.5z M252.6,269.9l-0.2,0.1l-0.1,0.6h0.2L252.6,269.9L252.6,269.9z M252.5,265.4v0.5c0.1,0.1,0.2,0.1,0.4-0.1l-0.2-0.4
		H252.5z M253.3,278.5v0.5h0.1v-0.5H253.3z M256.3,272.1l0.8,0.5c1,0.8,1.5,1.9,1.7,3.2v2.5c-0.1,1.5-0.4,2.9-0.6,4.4v1.2l-0.4,0.3
		c-0.5,0-0.9-0.2-1.3-0.5l-0.9-1.2v-0.3l0.2-0.1c0.2,0.4,0.5,0.5,1,0.6v-2.2c-0.3-2.5-0.6-5.1-0.8-7.7l0.3-0.2l-0.3-0.2v-0.3
		L256.3,272.1z M256.9,283.1v0.2l0.2,0.1v-0.2L256.9,283.1z M260.8,276.6c0.6,0.1,1.2,0.4,1.7,0.8h0.6c0.4,0.6,0.6,1.2,0.9,1.7
		c0.2,1.3,0,2.4-0.6,3.4c-0.2,0.2-0.5,0.2-0.6,0l-0.3-0.6c-0.2,0-0.4-0.1-0.5-0.3l-0.3-0.7l-0.8-4l-0.2-0.1L260.8,276.6L260.8,276.6
		z M261.3,277.2v0.2h0.1v-0.1L261.3,277.2z M263.2,281.7l-0.2,0.1l0.2,0.2V281.7L263.2,281.7z M263,278.6v0.2h0.1v-0.2H263z
		 M263.5,280.5v0.3V280.5L263.5,280.5z M264.6,268.6l0.1,0.2h0.1v-0.2H264.6z"/>
</g>
<g class="st5">
	<path class="st0" d="M119.8,22.3l0.6,0.3c0.3,0.7,0.4,1.4,0,2.1c-0.6,1-1.3,1.9-2.1,2.7c-0.2,0.2-0.4,0.1-0.6-0.1
		c0-0.2-0.1-0.4-0.3-0.6l-0.1-2.8c-2.4,0.3-4.9,0.6-7.3,0.9c-2.2,0.2-4.4,0.2-6.6-0.1c-0.2,1.5-0.9,2.9-1.9,3.9
		c-0.4,0.3-0.8,0.4-1.2,0.4c-0.2-0.1-0.3-0.3-0.2-0.5c0.2-1.6,0.3-3.2,0.3-4.9l0.4-0.7l0.9-0.1c0.5,0.1,0.9,0.3,1.3,0.7l0.4,0.6
		c2.6,0.2,5.1,0.2,7.7-0.1l6.1-0.9l0.2-0.3c0.5-0.3,1.1-0.5,1.8-0.6h0.6V22.3z M101,23.2l-0.2,0.1l0.2,0.2c0,0.4,0.1,0.8,0.2,1.2
		h0.1l0.1-0.6c0.1-0.2,0.2-0.4,0.3-0.7L101,23.2L101,23.2z M101.2,27.7c-0.2,0.2-0.3,0.4-0.3,0.6l0.4-0.3L101.2,27.7L101.2,27.7z
		 M101.1,26.4v0.3V26.4L101.1,26.4z M111.7,26.6c0.1,0.1,0.3,0.2,0.6,0.2l0.9,0.7c0.6,0.5,1,1.2,1.2,1.9l0.2,1.8l1.1-0.2
		c0.2-0.4,0.4-0.9,0.8-1.2l0.6-0.3l0.7,0.2l0.6,0.6c0,0.3,0,0.5-0.1,0.7l-0.6,0.4c-1.1,0.3-2.1,0.5-3.1,0.6l-0.1,4.9l-0.3,1.8
		c-0.3,1.3-0.6,2.5-0.8,3.8l-0.3,0.1l-0.3-0.3l-0.5-0.3l-1-1.2c-0.3-0.3-0.3-0.6-0.1-0.9l0.9-0.3c0-2.4-0.1-4.9-0.3-7.4
		c-2.3,0.2-4.6,0.2-6.8,0c-1.1,0-2.1-0.3-3.1-0.8l-0.1-0.3c1.1,0.2,2.3,0.4,3.5,0.4c2.1,0.1,4.2,0.1,6.3-0.2
		c-0.1-1.1-0.2-2.2-0.3-3.3C111.3,27.7,111.3,27.1,111.7,26.6z M102.8,24.7v0.2V24.7L102.8,24.7z M106.5,33.6l1.3,0.8
		c0.5,0.4,0.9,1,1.1,1.5c0.1,0.8-0.1,1.5-0.4,2.1l-0.4,0.2c-0.4,0-0.8-0.1-1.2-0.2c-0.4-1.4-0.9-2.8-1.4-4.2l0.4-0.5L106.5,33.6z
		 M105.9,34l0.4,0.5l0.2-0.2l-0.4-0.3H105.9z M107.5,19.7c0.9,0.1,1.8,0.4,2.6,0.8c0.4,0.4,0.7,0.8,1,1.3c0,0.4,0,0.8-0.3,1.1
		c-0.7,0.5-1.4,0.6-2.1,0.1l-0.5-0.7c-0.5-0.8-0.9-1.6-1.1-2.4L107.5,19.7z M107.7,20.2l-0.2,0.1l0.2,0.2l0.2-0.2L107.7,20.2z
		 M110.1,21.5L110.1,21.5L110.1,21.5L110.1,21.5z M110.1,21.5l0.3,0.5l0.1-0.1L110.1,21.5L110.1,21.5z M111.6,27
		c0,0.3,0.1,0.6,0.3,0.8l0.5-0.3l-0.7-0.6h-0.1V27z M112.4,40.5c-0.2,0-0.4,0-0.5,0l0.1,0.2C112.1,40.7,112.2,40.6,112.4,40.5z
		 M112.6,40.3l-0.2,0.2l0.4,0.2v-0.3h-0.2V40.3z M112.7,29.6c-0.1,0.6,0,1.2,0.2,1.8h0.2L112.7,29.6L112.7,29.6z M113.1,28.5
		l0.1,0.2l0.1-0.2H113.1z M113.2,32.3c-0.1,0.1-0.1,0.3,0,0.4V32.3L113.2,32.3z M113.2,28.7c0.2,0.6,0.4,1.2,0.5,1.8l0.1,0.1
		c0-0.6-0.1-1.3-0.4-1.9H113.2z M117,30.3c-0.3,0.2-0.4,0.4-0.4,0.6c0.3,0,0.6-0.1,0.9-0.2l0.1-0.2l-0.3-0.2L117,30.3z M118.1,23.8
		c-0.1,0.1-0.1,0.2,0.1,0.3L118.1,23.8L118.1,23.8z M118.9,23l-0.1,0.1l0.2,0.2l0.1-0.2L118.9,23z"/>
	<path class="st0" d="M129.8,21.5l0.9,0.5l0.6,0.9c0.2,1.5,0.4,2.9,0.7,4.2l2.1-0.1c-0.3-0.1-0.4-0.3-0.3-0.6l0.4-0.6
		c0.5-0.2,0.9-0.1,1.4,0.3l0.4,0.6l0.2-0.3c0.6-0.1,1.2,0,1.7,0.4c2.3,0.1,4.6,0,6.9-0.2l0.3-0.3c0.4-0.3,0.9-0.5,1.4-0.4l0.5,0.4
		c0.2,0.6,0.3,1.3,0.3,1.9c-0.5,1.6-1.1,3.2-1.8,4.7c-0.3,0.1-0.6,0.1-0.9,0l-0.4-0.3c-1.8,0.2-3.6,0.3-5.4,0.3
		c-0.4,2.1-1,4.2-1.6,6.2c-0.6,0.6-1.1,1.3-1.5,2L135,41c0.3-1.9,0.7-3.8,0.9-5.7c0-2.6-0.1-5.3-0.3-7.9l-0.7,0.3l-3,0.2v3.8
		l0.1,0.4c0.6-0.1,1.3-0.4,1.9-0.7l0.3-0.1c0,0.3,0,0.7-0.1,1l-0.8,0.8l-1.2,0.8c-0.1,2.2-0.2,4.3-0.2,6.5l-0.2,0.6l-0.4,0.2
		c-0.3-0.1-0.6-0.2-0.8-0.5c-0.4-0.5-0.8-1-1.2-1.6v-0.3h0.2c0.2,0.2,0.5,0.4,0.8,0.4l-0.2-3.9c-0.8,0.4-1.6,0.6-2.5,0.5
		c-0.4-0.1-0.8-0.3-1-0.6c-0.3-0.3-0.5-0.8-0.4-1.2l0.5-0.2l-0.7-0.2v-0.3c1.2-0.1,2.5-0.3,3.7-0.6l0.3-0.3l-0.4-4.7
		c-1.4,0-2.7-0.1-4.1-0.3l-0.2-0.2l0.1-0.2l3.8-0.1l0.3-0.1c-0.2-1.8-0.4-3.5-0.5-5.3c0-0.2,0.1-0.4,0.3-0.6L129.8,21.5z
		 M129.9,23.7c-0.1,0.3-0.1,0.5,0.1,0.7v-0.7H129.9z M130.1,24.4c-0.1,0.3-0.1,0.7,0.1,0.9L130.1,24.4L130.1,24.4z M133,32.3
		l-0.5,0.3c0.1,0.1,0.3,0.1,0.5,0V32.3L133,32.3z M134.8,26.2c-0.2,0-0.3,0-0.4,0.2l0.1,0.2L134.8,26.2L134.8,26.2z M136.4,26.7
		L136.4,26.7l0.2,0.2v-0.1L136.4,26.7z M137.5,27.6L137.5,27.6v0.2c0,0.6,0.2,1.1,0.4,1.6C138,28.8,137.8,28.2,137.5,27.6
		L137.5,27.6z M137.8,21c0.7,0.1,1.4,0.3,2.1,0.5l1,0.6c0.3,0.3,0.6,0.7,0.9,1.1c0.1,0.5,0,0.9-0.2,1.2c-0.3,0.2-0.7,0.3-1.1,0.3
		l-0.2,0.3l-0.5-0.2c-0.8-1-1.5-2-2-3.2C137.6,21.4,137.6,21.2,137.8,21z M144.6,27.4l-6.3,0.2c0.1,0.8,0.3,1.6,0.5,2.5
		c-0.2,0.8-0.2,1.5,0,2.2l2.9-0.1c0.8,0,1.5,0,2.3-0.3C144.2,30.4,144.5,29,144.6,27.4L144.6,27.4z M138.4,21.6
		c0,0.3,0.1,0.5,0.4,0.6v-0.3l-0.2-0.2L138.4,21.6z M140.5,22.8c0,0.4,0.1,0.8,0.3,1.1l0.3-0.2c0-0.3-0.2-0.7-0.4-0.9H140.5z
		 M145.1,27.4l-0.1,0.2l0.2,0.1l0.1-0.2L145.1,27.4z M145.6,28.4c-0.2,0.4-0.3,0.8-0.4,1.2l0.1,0.1
		C145.5,29.3,145.6,28.9,145.6,28.4L145.6,28.4z"/>
	<path class="st0" d="M151.5,24.6l1,0.7c0.8,2,1.1,4,0.8,6.3c0,0.9-0.3,1.7-0.8,2.3l-0.3,0.1l-0.3-0.3c-0.3-2.8-0.6-5.6-0.9-8.4
		l0.2-0.1l0.3,0.7l0.1-0.7c-0.3-0.1-0.4-0.4-0.4-0.7h0.3V24.6z M152.4,26.1c0,0.4,0.1,0.8,0.3,1.1c0-0.4,0-0.8-0.1-1.1H152.4z
		 M155.2,20.6l0.9,0.7c0.5,0.8,1,1.7,1.2,2.7c0.2,1.7,0.3,3.4,0.1,5.1c-0.4,2.3-0.8,4.6-1.2,6.8l-1,2.9c-0.5,0.7-1,1.3-1.5,1.9h-0.2
		c0.2-1.6,0.5-3.2,1-4.8l0.4-3.6c-0.1-3.7-0.1-7.3,0.2-11v-0.2c0-0.2,0-0.3,0-0.5C155.1,20.6,155.2,20.6,155.2,20.6z M155.2,22v0.2
		V22L155.2,22z M155.9,22.1l0.2,0.5l0.2,1.3h0.1l0.1-1.1l-0.3-0.7C156.2,22.1,155.9,22.1,155.9,22.1z M170.2,22.6
		c0.4,0.1,0.8,0.1,1.1,0.3l0.6,0.4c0.1,0.3,0,0.5-0.2,0.6c-1,0.5-1.9,0.7-3,0.8l-4.9,0.1l1.1,1l0.8,1c0,0.4,0.1,0.7,0.3,1l2.4,0.1
		c1-0.1,2-0.3,2.9-0.6l0.4,0.4c0.3,1.4,0.4,2.8,0.3,4.3c-0.2,1.3-0.6,2.6-1,3.9l-0.3,0.2l-0.5,0.5c-0.5,0.1-1,0-1.4-0.4l-0.6-0.6
		c-0.2-0.2-0.2-0.5,0.1-0.7l0.9,0.2l0.1-2.2c-0.1-1.5-0.1-2.9-0.2-4.4l-3.1,0.1c-0.1,2.9-0.2,5.8-0.3,8.6c-0.2,1.6-0.4,3.2-0.4,4.8
		l-0.3,0.2c-0.5-0.8-0.7-1.7-0.7-2.8c-0.2-3.6-0.4-7.2-0.7-10.9c-1.1,0-2.1,0-3.1-0.2h-0.7c0.3,2.2,0.4,4.3,0.4,6.4
		c-0.2,0.4-0.4,0.9-0.5,1.3h-0.4c-0.8-2.2-1.2-4.5-1.4-6.9c-0.2-0.9-0.1-1.8,0.1-2.6c0.4,0,0.8,0.2,1.1,0.5l0.4,0.5l0.4,0.2
		c1.2,0.1,2.5,0.1,3.7,0l-0.3-2.4l-0.4-0.7c-1.4,0-2.8-0.2-4.2-0.6v-0.3c2.6,0.3,5.2,0.4,7.9,0.3c0.9,0.1,1.7,0,2.6-0.3
		c0-0.3,0.2-0.7,0.5-1L170.2,22.6z M158.4,27.2c-0.1,0.2-0.1,0.5,0.1,0.7c0.2-0.1,0.3-0.3,0.3-0.6L158.4,27.2z M164.8,26.5l-0.1,0.1
		c0.1,0.4,0.2,0.8,0.3,1.2h0.3v-0.4L164.8,26.5L164.8,26.5z M165.1,28.6l0.2,2.8h0.1v-2.8H165.1z M169.9,30.2v0.2V30.2L169.9,30.2z
		 M170.8,23.2c-0.3-0.1-0.5,0-0.7,0.1v0.4c0.3,0,0.6-0.1,0.8-0.3L170.8,23.2z M171.2,28c-0.2,0-0.3,0-0.4,0.1l0.4,0.6l0.2,0.6h0.2
		C171.5,28.8,171.4,28.4,171.2,28z"/>
	<path class="st0" d="M180.3,19.6c0.2,0,0.5,0.1,0.7,0.2l0.7,0.6c0.4,1.1,0.6,2.3,0.7,3.4l-0.2,1.7c-0.3,0.9-0.6,1.8-0.8,2.7h1.9
		l0.3-0.2c0-0.2,0-0.4,0.2-0.6l0.3-0.1l0.5,0.4c0.6,1,0.9,2,0.9,3.2c-0.3,1.9-1.1,3.7-2.2,5.3l0.2,0.3l2.9,2l0.1,0.2l0.4,0.3
		c0.7,0.2,1.5,0.2,2.3,0.2c-1-3.5-1.6-7.1-1.8-10.8c-0.2-1.9-0.3-3.7-0.2-5.7l0.2-0.2l0.6,0.4l1.6,1.6c1.8,0.1,3.5,0,5.3-0.3
		l0.5-0.7l0.5-0.4h0.8c0.4,0.4,0.7,0.9,0.8,1.4c0.2,1.3,0.3,2.6,0.3,3.9c-0.3,3.6-0.6,7.2-0.8,10.8c0.6,0.1,1.2,0.1,1.8-0.1
		c0-0.3,0.2-0.7,0.4-1.1h0.4l0.5,0.6v1.2c-3.6,0.2-7.1,0.2-10.6,0.1l-2.2-0.3l-0.2,0.5c-0.3,0.3-0.7,0.4-1.1,0.3
		c-0.8-0.1-1.5-0.4-2.2-1l-1.5-1.5l-0.3,0.3c-0.8,0.7-1.6,1.3-2.6,1.7l-0.3-0.2l-0.1-0.3l0.2-0.1c0.8-0.8,1.4-1.6,2.1-2.6
		c-1.1-1.2-1.9-2.5-2.4-3.8l0.5,0.5h0.3c0.8,0.7,1.6,1.3,2.5,1.9c0.4-0.8,0.8-1.6,1.1-2.4c0.3-1.3,0.5-2.6,0.5-4l-2.5,0.2l-1.4,2.4
		l-0.6,0.6l-0.5-0.1l-0.2,0.2l-0.3,0.1l-0.2-0.2c0-0.3,0.1-0.7,0.3-1l0.2-0.1l0.6-1.7V29c-1.2,0-2.3-0.2-3.3-0.6v-0.1l0.2-0.1
		c1.1,0.1,2.2,0.2,3.3,0.1c0.2-1,0.4-2.1,0.6-3.1c-0.1-1.6,0.1-3.2,0.4-4.8l0.2,0.2l0.1,0.5l0.1-0.5l0.3-0.2l-0.1-0.2l-0.5-0.3
		L180.3,19.6z M181.1,21.6v2.3h0.1L181.1,21.6L181.1,21.6z M183.9,27.9l-0.1,0.2l0.2,0.1L183.9,27.9L183.9,27.9z M185.3,38.8h0.2
		l-0.2-0.2V38.8z M187.4,23.4v0.2h0.2v-0.2H187.4z M188,23.9c-0.1,0.2-0.1,0.3,0,0.5l0.2-0.3L188,23.9L188,23.9z M188.8,34.5
		c-0.1,0.3-0.1,0.6,0.1,0.8l0.1-0.7L188.8,34.5z M188.8,25.1l0.1,0.8l0.2,0.2l0.1-0.7l-0.1-0.3H188.8z M188.9,31.1v0.5h0.1
		L188.9,31.1L188.9,31.1z M189.8,34.3l-0.2,3.6c0,0.5,0.1,0.9,0.3,1.3h5.4l0.2-0.1c-0.3-1.5-0.4-3.1-0.3-4.7l-0.1-0.2
		c-1.6,0.2-3.2,0.3-4.8,0.1C190.3,34.3,189.8,34.3,189.8,34.3z M194.8,24.8c-1.7,0.3-3.4,0.5-5.1,0.4c0,1.2,0,2.3,0,3.4l0.2,0.2
		c1.7,0.5,3.4,0.5,5.1-0.1c0-1.2,0-2.5,0.1-3.7L194.8,24.8L194.8,24.8z M189.8,29.4v4.2c1.7,0.3,3.4,0.3,5.2,0v-4l-0.1-0.1
		c-1.1,0.3-2.3,0.4-3.4,0.3l-1.4-0.3L189.8,29.4z M196.2,23.8c-0.3-0.1-0.5,0-0.7,0.2l0.1,0.2c0.2,0.1,0.5,0.1,0.7-0.2L196.2,23.8z
		 M196.4,33.1c-0.1,0.2-0.1,0.5,0,0.7V33.1L196.4,33.1z M196.5,32.1l-0.1,0.4h0.1V32.1L196.5,32.1z M199.3,39.1v0.2V39.1L199.3,39.1
		z"/>
</g>
</svg>
