<?xml version="1.0" encoding="utf-8"?>
<!-- Generator: Adobe Illustrator 27.0.0, SVG Export Plug-In . SVG Version: 6.00 Build 0)  -->
<svg version="1.1" id="图层_1" xmlns="http://www.w3.org/2000/svg" xmlns:xlink="http://www.w3.org/1999/xlink" x="0px" y="0px"
	 viewBox="0 0 505.7 284.4" style="enable-background:new 0 0 505.7 284.4;" xml:space="preserve">
<style type="text/css">
	.st0{fill:#EEEEFF;}
	.st1{fill:none;stroke:#EEEEFF;stroke-width:3;stroke-linecap:round;stroke-linejoin:round;stroke-miterlimit:10;}
	.st2{fill:none;stroke:#EEEEFF;stroke-width:2;stroke-linecap:round;stroke-linejoin:round;stroke-miterlimit:10;}
	.st3{fill:none;stroke:#EEEEFF;stroke-width:3;stroke-miterlimit:10;}
	.st4{fill:none;stroke:#EEEEFF;stroke-width:3;stroke-linecap:round;stroke-miterlimit:10;}
	.st5{opacity:0.5;enable-background:new    ;}
	.st6{fill:#FFFFFF;}
</style>
<g>
	<g>
		<path class="st0" d="M169.6,39.9c7.3-6.9,20.2-6.3,28.8-2.2c-1.3,0.1-2.5,0-3.8,0C186.3,37.6,177.7,37.3,169.6,39.9L169.6,39.9z"
			/>
	</g>
	<g>
		<path class="st0" d="M165.5,135.2c-8-1.4-15.9-3.5-23.1-7.2c-21-10.9-33.8-33.2-20.4-55.4c1.9-2.9,4.2-6,7.4-7.5l-1.6,2
			c2.1-8.4,8.5-14.9,15.4-19.6c1-0.6,2-1.2,3-1.8l-1.1,1.5c1.6-6.3,4.6-12.2,9.5-16.5c3.6-2.7,6.6-5.1,11-6.3
			c2.3-0.5,4.6,0.4,6.5,1.7c3.5,2.6,4.9,6.8,6,10.7c0.1,0.2-0.2,0.3-0.3,0.1c-1.4-3.6-3-7.7-6.3-9.9c-4.1-2.6-7.3-1-10.9,1.5
			c-7,4.1-11.5,11.4-13.1,19.2c-3.7,2.5-7.5,5.1-10.4,8.6c-3.1,3.3-5.4,7.4-6.7,11.7c-2.6,1.3-4.4,4-6,6.4
			c-12.5,20.6-0.5,41.5,18.7,52.3c7,3.9,14.7,6.4,22.4,8.4C165.6,135.1,165.6,135.2,165.5,135.2
			C165.6,135.2,165.6,135.2,165.5,135.2L165.5,135.2z"/>
	</g>
	<g>
		<path class="st0" d="M196,36c4-6.2,11.2-13.4,18.7-7.5c5.3,3.7,9.3,8.9,13.5,13.8c0.5,0.6,1.1,1.3,1.6,1.9
			c8.8,4.6,20.6,15.6,25.6,26.6c7.2,14.4,6.3,32.8-3.4,45.9c-1.8,2.6-4,5-6.3,7.2c-4.1,3.8-8.7,7.2-14.1,9
			c-6.7,2.2-13.6,3.3-20.5,3.9c-6.1,0.5-12.2,0.8-18.3,0.5c-0.1,0-0.2-0.1-0.2-0.2c0-0.1,0.1-0.1,0.1-0.1c12.1-0.5,24.4-1.8,36-5.3
			c5.9-1.7,10.9-5.4,15.2-9.6c8.7-8.4,13.9-20.5,13.2-32.6c-0.7-18.5-13.6-34.3-28.8-43.7c-2.4-2.7-4.5-5.7-6.9-8.4
			c-2.3-2.7-4.8-5.4-7.6-7.6c-1.4-1-3-2.1-4.7-2.2c-5.5-0.1-9.6,4.7-12.8,8.7C196.1,36.3,195.9,36.1,196,36L196,36z"/>
	</g>
	<path class="st1" d="M198.1,81.1c0,0,3-7,17-4"/>
	<path class="st1" d="M150.1,75.1c0,0,8-2,15,5"/>
	<g>
		<path class="st0" d="M178.5,76.1c2-3.3,8.6-3.4,9.2,0.9C184.4,76.3,181.8,77.2,178.5,76.1L178.5,76.1z"/>
	</g>
	<g>
		<path class="st0" d="M173.3,81.7c-1.3,1.5-2.7,4.8-1.4,6.5c1.7,1.7,4.2,3.3,6.6,2.2c1.7-0.8,2.8-2.5,3.3-4.2
			c0.1-0.4,0.6-0.6,1-0.5c0.2,0.1,0.4,0.2,0.5,0.5c0.6,1.7,1.7,3.4,3,4.2c1.3,0.8,2.9,0.7,4.4,0.5c1.2-0.2,2.3-0.4,3.2-1.1
			c1.5-1.5,1.1-4.1,1.3-6.2c0-0.2,0.2-0.2,0.3-0.1c1.3,2.6,2.3,6.4-0.2,8.7c-5.3,4.2-13.2,1.8-13.5-5.5l1.6,0.3
			c-1.2,1.7-2.5,3.3-4.4,4.3c-5.7,3.6-13.5-2.2-8.4-8.1c0.8-0.8,1.5-1.6,2.7-1.7c0.1,0,0.1,0.1,0.1,0.1
			C173.5,81.6,173.4,81.7,173.3,81.7L173.3,81.7z"/>
	</g>
	<path class="st2" d="M174.3,114.6c0,0,4,5,12,1"/>
	<g>
		<path class="st0" d="M132.8,119.8c-6.8,5.2-13.5,10.6-18.3,17.6c-5.4,7.2-3.9,15.4,1.8,21.9c3.7,4.2,8.3,7.8,13.4,10.3
			c-5.7-1.4-10.9-4.6-15.1-8.7C97.9,143.7,117,127.4,132.8,119.8L132.8,119.8z"/>
	</g>
	<g>
		<path class="st0" d="M299.1,90.1c2.6,5.3,3.2,12.7-2.5,16.3c-3.2,2.1-7.6,3.4-11.1,1.2l2.1-0.9c-1.2,6.8-4.1,13-7.8,18.7
			c-6.2,9.3-15.2,16.8-25.5,21.1c10.9-7.2,20.4-16.6,26.2-28.3c2.3-4.4,4.1-9.2,4.9-14.1l1.7,1.3c1.6,1,3.7,0.9,5.5,0.4
			C300.4,103.8,300.9,96.9,299.1,90.1L299.1,90.1z"/>
	</g>
	<g>
		<path class="st0" d="M251.9,112.2c4.9-3.4,10-6.3,15.2-9.3c4-2.4,8.5-4.6,12-7.7c2-3.3,4.7-7.1,8.7-8.2c1.1-0.2,2.1-0.1,3.1,0
			c-1,0.2-2,0.3-2.8,0.7c-3.5,1.9-5,5.6-6.9,9c-2.1,2.5-4.8,4-7.4,5.7C266.7,106.5,259.5,109.8,251.9,112.2L251.9,112.2z"/>
	</g>
	<g>
		<path class="st0" d="M139.7,132.7c-11.1,17.1-14.4,37.4-6.4,56.4c2.4,6.1,5.7,11.8,9.4,17.4l-0.2,0.2c-5-4.6-9-10.2-11.9-16.4
			c-6.9-15.7-4.5-34.4,3.5-49.3c1.6-3,3.4-5.8,5.4-8.5L139.7,132.7L139.7,132.7z"/>
	</g>
	<g>
		<path class="st0" d="M256.2,145c10.1,11.8,12.2,28.7,9.6,43.7c-0.8,5.1-2.3,10-4,14.9l0.1-1.4c1,5,2.1,12.4,3.5,17.1
			c-0.1-0.1-0.2-0.3-0.3-0.4c0.5,0.5,1.3,1.3,1.8,1.9c2.1,2,2.5,5.8,0.5,7.9c-1.7,2-5.4,1.6-7,0.3c0.3,0.2,0.8,0.4,0.9,0.4
			c0.4,0,0.2,0,0.1,0s-0.3,0-0.4,0.1c-2.4,0.4-4.8,1-7.3,0.5c-1.8-0.6-3.5-1.4-5.3-2.1c-7.3-3.2-14.9-6-21.6-10.5
			c-0.6-0.5-1.2-0.9-1.6-1.6c0-0.1,0-0.2,0-0.2c0.1,0,0.2,0,0.2,0c2,2,5,2.9,7.5,4.1c5.3,2.2,10.8,4.2,16.2,6.1
			c1.4,0.5,2.7,1,4.1,1.5c2.7,1.2,5.7-0.4,8.5-0.5c0.4,0.1,0.4,0.2,0.5,0.3s0.3,0.1,0.5,0.2c0.6,0.1,1.4,0.2,2,0.1
			c1.7-0.6,1.6-3,0.6-4.2c-0.7-0.7-1.6-1.6-2.3-2.3c-0.3-0.4-0.4-0.7-0.5-1.1c-1.5-5.7-2.6-11.4-3.6-17.2
			c6.2-16.1,7.9-34.8,0.6-50.8c-1-2.3-2.2-4.5-3.7-6.4C255.9,145,256.1,144.8,256.2,145L256.2,145z"/>
	</g>
	<g>
		<path class="st0" d="M139.3,203.6c-3.7,2.6-6.4,7-5,11.5l0.8,2.7c0.5,1.8,1,3.7,1.5,5.5c0.1,0.3,0.1,0.6-0.1,0.9
			c-0.3,0.8-0.8,1.8-0.8,2.4c0,0.7,0.6,2.3,1.4,2.6c0.3,0,0.9,0,1-0.1c0.5-0.3,1-0.8,1.8-0.8c1.1-0.1,2.4,0.6,3.4,0.9
			c1.2,0.4,2.5,0.9,3.7,0.9c0.3,0,0.3,0,0.7-0.3c0.5-0.3,1-0.8,1.2-1.3c0.5-1.6,1.3-3.1,2.2-4.5c0.5-0.7,1-1.4,2-1.9
			c0.3-0.1,0.7-0.3,1.1-0.2c3.1-0.4,6.9-2.1,9.9-3.1c-3.2,2-6.5,4.1-10.1,5c-1.5,1.4-2.4,4.5-2.8,5.8c-0.5,1.4-1.7,2.5-3,3.1
			c-2,0.7-4.1-0.1-5.9-0.7c-0.5-0.2-1.7-0.6-2.2-0.7l0,0l0,0c0.1,0,0.2-0.1,0,0c-1.1,0.9-2.7,1.2-4,0.8c-2.3-0.8-3.5-3.4-3.4-5.8
			c0.2-1.4,0.7-2.2,1.2-3.2l-0.1,1c-0.6-2.7-1.3-5.7-1.8-8.4C131.1,210.4,134.7,205.3,139.3,203.6L139.3,203.6z"/>
	</g>
	<g>
		<path class="st0" d="M159.3,216.6c21.4,5.6,43.9,6.2,65.6,2.3c1.5-0.3,2.9-0.5,4.4-0.7c-2.8,1-5.6,2.1-8.5,2.9
			C201.2,226.4,177.9,225.5,159.3,216.6L159.3,216.6z"/>
	</g>
	<g>
		<path class="st0" d="M188.7,92.9c-0.1,1-0.1,2.4,0.7,3c2.3,0.7,3.9-1.6,3-3.8c1.5,2.5-0.4,5.4-3.4,5c-1.8-0.6-2.1-2.6-2.3-4.2
			c-0.1-0.6,0.3-1,0.9-1.1C188.2,91.7,188.8,92.3,188.7,92.9L188.7,92.9z"/>
	</g>
	<g>
		<path class="st0" d="M249.8,79.6c1.9-5,7.4-8.8,12.8-8C258,73.6,253.8,76.5,249.8,79.6L249.8,79.6z"/>
	</g>
	<g>
		<path class="st0" d="M249.8,82.2c4.2-2.4,9.4-3.7,14.2-2.6C259.5,81.2,254.8,82.5,249.8,82.2L249.8,82.2z"/>
	</g>
	<g>
		<path class="st0" d="M132.1,74.6c-4.5-2.5-7.8-6.5-11.4-10c2.7,0.3,4.8,2.2,6.7,3.9C129.2,70.3,130.9,72.2,132.1,74.6L132.1,74.6z
			"/>
	</g>
	<g>
		<path class="st0" d="M129.6,78.6c-5.4-1.1-10.2-3.4-15-6C120.1,72.5,125.5,75.1,129.6,78.6L129.6,78.6z"/>
	</g>
	<g>
		<path class="st0" d="M176.2,133.2C176.3,133.2,176.2,133.2,176.2,133.2c-0.1,1.6-0.4,3.2-0.5,4.7c-0.1,1.1-0.2,2.7,0.3,3.6
			c0.2,0.3,0.3,0.2,0.4,0.2c1.3,0.1,3.2-0.4,4.6-1l-1.4,2c0.3-2.3,0.8-5,0.7-7.2c0-0.1,0-0.2,0.3,0c0.1,0.1,0.4,0.1,0.5,0.1
			c-1.8-0.3-3.4-1.2-4.8-2.3C176.3,133.4,176.2,133.3,176.2,133.2C176.1,133.3,176,133.3,176.2,133.2L176.2,133.2z M176.1,132.9
			c0.2,0,0.2,0,0.3,0.1c1.5,0.4,3.1,0.8,4.6,0.8c2.4,0.1,1.4,7.5,1.4,9.3c0,0.1-0.1,0.2-0.2,0.2c-2.6,1.3-7.6,2.7-8.8-1.1
			c-0.6-3.1,0.9-6,2.2-8.7c0.1-0.1,0.2-0.3,0.2-0.4C176,133,175.9,133.1,176.1,132.9L176.1,132.9z"/>
	</g>
	<g>
		<path class="st0" d="M182.1,134.1c0.9-5.6,9.3-2,10.9,1.5c0.8,1.4,0.8,3.1,0.7,4.7c-0.1,1.4-0.1,2.8-0.7,4.4
			c-1.9,4.9-8.7,1.7-11.4-0.7c-0.2-0.3-0.5-0.6-0.5-0.9c0.1,0.3,0.5,0.4,0.8,0.6c2.1,0.8,4.5,1.2,6.7,1.2c1.1-0.1,1.5-0.1,1.8-1.1
			c0.3-0.9,0.3-2.3,0.4-3.6c0.1-1.1,0.2-2.3-0.3-3.3c-0.7-1.8-2.8-3.1-4.6-3.9C184.5,132.1,183,132.7,182.1,134.1L182.1,134.1z"/>
	</g>
	<g>
		<path class="st0" d="M176.1,133.1c-2.4-0.5-6.2-1.6-7.9-1.3c0.1,0,0.1-0.1,0.1,0c-0.3,0.7-0.7,1.4-1,2.1c-0.5,1-1.4,2.6-1.6,3.6
			c0,1.9,1,4,2.4,5.3c0.4,0.3,0.6,0.6,1.2,0.7c1.8,0.2,3.8-0.3,5.6-0.7c-4.4,3.6-8.3,3.9-11.2-1.5c-0.6-1.3-1.1-2.7-0.9-4.2
			c0.3-1.8,1.3-3.2,2.1-4.6c0.2-0.3,1.1-1.8,1.3-2.1C168.2,127.5,174.1,131.5,176.1,133.1L176.1,133.1z"/>
	</g>
	<g>
		<path class="st0" d="M295.2,74.9c4.7-13.5,12.2-36.6,6.4-50.2c-0.3-0.7,0-1.5,0.7-1.8c7.2-3.7,15.1-7.3,21-12.9
			c0.7-0.8,2.1-0.5,2.4,0.5c3.9,12.1,3,25.2-0.7,37.1c-1.5,4.4-3.3,8.7-5.5,12.8c-1.4,2.3-3.3,5.8-4.9,7.9
			c-2.5,3.7-5.8,7.5-8.7,10.8c1.6-2.3,3.9-5.2,5.4-7.5c8.3-12.6,14-27.3,14.1-42.5c0.1-5.8-0.6-12.1-2.4-17.6l2.5,0.5
			c-1.6,1.7-3.4,3-5.2,4.2c-5.4,3.6-11,6.5-16.9,9.1l0.7-1.8C310.1,38.4,301.6,61.2,295.2,74.9L295.2,74.9z"/>
	</g>
	<g>
		<path class="st0" d="M306.9,88.9c2.6-11.9-13.1-18.1-18.3-6.9l-0.8-1.9C293.9,82.6,301,86,306.9,88.9L306.9,88.9z M306.9,88.9
			c-6.5-1.6-13.8-3.8-20.2-6c-0.8-0.3-1.1-1.1-0.8-1.9c2-6.1,9.4-9.4,15.3-6.9C306.9,76.3,309.9,83.6,306.9,88.9L306.9,88.9z"/>
	</g>
	<line class="st1" x1="292.7" y1="83.5" x2="290.1" y2="90.1"/>
	<g>
		<path class="st0" d="M300.1,91.1c-4.3-0.3-10-1.1-12.4,3.1c-0.9,2-1.7,4.4-2.1,6.7c-0.4,2.2-0.8,4.8,1.6,6.2
			c-1.4,0.1-2.7-1.1-3.3-2.3c-1.4-3.2-0.7-6.8,0.4-10C286.3,87.6,294.9,87.8,300.1,91.1L300.1,91.1z"/>
	</g>
	<line class="st3" x1="301" y1="86.7" x2="298.6" y2="91.6"/>
	<path class="st1" d="M290,90.6"/>
</g>
<path class="st1" d="M379.8,148.1c1,1.1,1.5,2.2,1.5,3.5c0,4.9-8.7,8.9-19.4,8.9"/>
<path class="st1" d="M354.8,159.9c-7.1-1.3-12.2-4.5-12.2-8.3c0-4.9,8.7-8.9,19.4-8.9c5.4,0,10.2,1,13.7,2.6"/>
<ellipse class="st3" cx="361.9" cy="149.9" rx="6.5" ry="3"/>
<ellipse class="st3" cx="361.9" cy="148.2" rx="11.7" ry="5.4"/>
<path class="st3" d="M350.2,148.7c0,0-0.9,9.5,0,10.1"/>
<path class="st3" d="M373.5,149.1c0,0,0.7,8.7,0,9.6"/>
<path class="st3" d="M356.1,152.9c0,0,12.4,4,12.4,7.1"/>
<path class="st1" d="M370.3,181c1.7-2.6,0-6-7.7-9.4c-1.9-0.8-8.1-3.3-11.9-6c-8.5-6-7.7-14.5-7.7-14.5"/>
<path class="st4" d="M381.3,151.6c0,0-2.1,19.6-3,22.2s-5.1,10.2-18.7,9.4s-14.5-11.1-14.5-11.9"/>
<path class="st4" d="M372,159.2c-0.9-0.4-10.9,6.2-12.3,10.1"/>
<path class="st4" d="M348.7,183.2c0,0,4.7,1.4,8-0.4"/>
<path class="st4" d="M361.6,183.2c0,0,0.1,3.8-9.2,4.6"/>
<path class="st4" d="M364.1,183.1c0,0,4.4,4.3,9.5,4.1"/>
<path class="st4" d="M358.3,216.8c0,0,7.2-10.9,4-33.5"/>
<path class="st1" d="M342.1,151.2c0,0,0.9,5.1,1.7,15.3"/>
<line class="st4" x1="366.8" y1="215.9" x2="392.8" y2="190.8"/>
<path class="st1" d="M371.1,210.8c0,0-3.4-12.8,3.4-17.9l3.4,4.3c0,0,0-7.7,4.3-8.5l1.7,4.3l4.3-3.4"/>
<path class="st1" d="M371.1,211.7c0,0,5.8,4.3,16.2,0l-2.6-3.4c0,0,9.2,0,11.1-6.8l-3.8-1.3c0,0,6.4-3,4.2-12.4c0,0-2.5-0.9-4.4,0"
	/>
<line class="st4" x1="350.7" y1="216.8" x2="341.3" y2="204.8"/>
<line class="st4" x1="338.7" y1="200.6" x2="335.3" y2="195.5"/>
<path class="st1" d="M349.5,215.3c0,0,6.1-7.9,2-15.6l-4.3,2.6l0.4-4.3"/>
<path class="st1" d="M345.5,194.6l-2.6-4.3l-2.3,3.7c0,0-3.6-7.1-12.2-4.5c0,0-1.7,6,3.4,11.9h-3.4c0,0-1.4,6.1,7.7,5.1l-4.3,3.4
	c0,0,2.4,8.2,17,5.4"/>
<g class="st5">
	<path class="st6" d="M165.8,238.3c-0.6,1-1.2,2-1.9,3v17.3H162v-15c-2.7,3.1-6,5.9-9.7,7.9c-0.3-0.4-0.8-1.1-1.2-1.5
		c5.3-2.6,9.8-7.1,12.5-11.7h-11.9v-1.8h22.5v1.8H165.8z M165.8,242.8c3.1,2,7.1,4.9,9.1,6.9l-1.4,1.3c-1.9-2-5.8-5.1-9-7.1
		L165.8,242.8z"/>
	<path class="st6" d="M198.2,256.5c1.2,0,1.4-0.7,1.5-4.9c0.4,0.3,1.2,0.6,1.7,0.8c-0.2,4.6-0.7,5.8-3.1,5.8h-4.2
		c-2.3,0-2.9-0.6-2.9-2.8v-10.1l-4.2,0.3c-0.4,6.9-1.7,11-8.9,13.1c-0.2-0.4-0.7-1.1-1.1-1.4c6.7-1.8,7.8-5.3,8.2-11.5
		c-3.8,0.3-4.6,0.4-5.2,0.7c-0.1-0.4-0.4-1.3-0.6-1.8c0.6-0.1,1.2-0.8,2.1-1.8c0.9-1,3.9-4.8,5.9-8.4l1.8,0.7
		c-2.1,3.3-4.5,6.6-6.8,9.1l12.8-0.9c-1.2-1.5-2.4-3.1-3.5-4.5l1.4-0.9c2.1,2.6,4.9,6.1,6.3,8.1l-1.6,1.1c-0.4-0.6-0.9-1.4-1.6-2.3
		l-3.4,0.3v10.2c0,0.9,0.2,1.1,1.4,1.1L198.2,256.5L198.2,256.5z"/>
	<path class="st6" d="M212.7,252.5c0.1,0.4,0.3,1.1,0.5,1.4c-4.2,2.9-4.8,3.4-5.2,3.9c-0.2-0.4-0.6-1.2-0.9-1.6
		c0.4-0.2,0.9-0.8,0.9-1.8v-9.8h-4.2v-1.7h5.9v11.6L212.7,252.5z M209.6,240.6c-0.8-1.1-2.5-2.8-3.9-4.1l1.1-1
		c1.4,1.2,3.2,2.8,4,3.9L209.6,240.6z M227.6,248.9h-6.8v9.7H219v-9.7h-7.2v-1.7h7.2v-6.5h-3.6c-0.6,1.6-1.3,2.9-2.1,4
		c-0.3-0.2-1.2-0.6-1.6-0.8c1.8-2.2,3-5.6,3.6-9.2l1.7,0.3c-0.3,1.4-0.6,2.8-1,4.1h10.5v1.7h-5.8v6.5h6.8v1.6H227.6z"/>
	<path class="st6" d="M238.3,235.2c-0.8,1.9-1.8,3.8-2.8,5.6v17.9h-1.7v-15.3c-1,1.4-2.1,2.7-3.2,3.8c-0.2-0.4-0.8-1.3-1.1-1.7
		c2.9-2.6,5.6-6.6,7.3-10.8L238.3,235.2z M246.4,247.6v8.3h7.1v1.7h-15.8V256h6.9v-8.3h-7.9V246h7.9v-7.2c-2.2,0.4-4.4,0.7-6.5,0.9
		c-0.1-0.4-0.3-1.1-0.5-1.5c4.9-0.7,10.7-1.7,13.9-2.9l1.3,1.4c-1.8,0.6-4,1.1-6.4,1.6v7.5h7.6v1.7h-7.6V247.6z"/>
	<path class="st6" d="M263.9,235.2c-0.7,1.8-1.5,3.6-2.4,5.4v18.1h-1.7v-15.1c-0.8,1.2-1.7,2.4-2.6,3.3c-0.2-0.4-0.7-1.3-1-1.7
		c2.4-2.6,4.7-6.5,6.1-10.4L263.9,235.2z M280.3,239h-2v17.2c0,1.3-0.4,1.9-1.3,2.2c-0.9,0.3-2.7,0.3-5.3,0.3
		c-0.1-0.5-0.4-1.3-0.7-1.8c2.2,0.1,4.1,0.1,4.7,0c0.5,0,0.7-0.2,0.7-0.7V239H264v-1.7h16.3V239z M266.5,251.8v1.9h-1.7v-10.8h8.1
		v8.9L266.5,251.8L266.5,251.8z M266.5,244.4v5.8h4.8v-5.8H266.5z"/>
	<path class="st6" d="M295.5,234.8c0,0.9-0.1,2.2-0.2,3.8c0.4,3.1,2,14.3,11.3,18.4c-0.5,0.4-1,1-1.3,1.5c-6.8-3.2-9.5-10-10.8-14.9
		c-1.2,5.4-3.9,11.6-10.6,15c-0.3-0.4-0.9-1-1.4-1.3c10.9-5.5,10.9-18.5,10.9-22.4h2.1V234.8z"/>
	<path class="st6" d="M308.6,246.4c0.7-1.7,1.2-4.6,1.4-6.7l1.3,0.2c-0.1,2.1-0.6,5.1-1.3,6.9L308.6,246.4z M312.4,234.7h1.7v23.9
		h-1.7V234.7z M315.6,238.9c0.8,1.4,1.6,3.2,1.9,4.3l-1.3,0.7c-0.3-1.2-1.1-3-1.8-4.4L315.6,238.9z M332.9,248.9H326v9.7h-1.8v-9.7
		H317v-1.7h7.1v-6.5h-3.3c-0.7,1.7-1.5,3.3-2.4,4.5c-0.3-0.2-1.1-0.6-1.6-0.8c1.9-2.3,3.2-5.9,4-9.7l1.7,0.2
		c-0.3,1.4-0.6,2.8-1.1,4.1h10.3v1.7h-5.8v6.5h6.9L332.9,248.9L332.9,248.9z"/>
	<path class="st6" d="M340.6,254.1c0.6,0.2,1.2,0.8,2.3,1.4c1.7,0.9,3.9,1.1,6.8,1.1c3.1,0,7-0.2,9.6-0.5c-0.2,0.5-0.5,1.3-0.5,1.8
		c-1.9,0.1-6.6,0.3-9.1,0.3c-3.1,0-5.3-0.3-7.1-1.3c-1.1-0.6-1.9-1.4-2.5-1.4c-0.9,0-2.2,1.4-3.6,3l-1.1-1.4
		c1.3-1.3,2.6-2.4,3.7-2.8v-8.6h-3.5V244h5.1L340.6,254.1L340.6,254.1z M339.6,241c-0.8-1.2-2.4-3.1-3.8-4.3l1.3-0.9
		c1.4,1.2,3.1,3,3.9,4.2L339.6,241z M349.6,240.8h-7.4v-1.6h5c-0.4-1.1-1.5-2.7-2.6-3.9l1.4-0.7c1.1,1.2,2.2,2.8,2.7,3.9l-1.4,0.7
		h4.6c0.9-1.3,2-3.2,2.6-4.5l1.8,0.5c-0.8,1.3-1.7,2.8-2.6,4h5v1.6h-7.5v6c0,0.4,0,0.7,0,1.1h4.5v-5.6h1.7v7.1H351
		c-0.5,2.6-2.1,5.1-6.3,6.6c-0.2-0.4-0.7-1-1.1-1.3c3.7-1.2,5.1-3.2,5.6-5.3h-5.7v-7.1h1.6v5.6h4.3c0-0.4,0-0.7,0-1.1v-6H349.6z"/>
	<path class="st6" d="M369.1,235.3c-0.8,1.9-1.7,3.9-2.7,5.7v17.7h-1.7v-15.1c-0.9,1.3-1.9,2.5-2.8,3.5c-0.2-0.4-0.7-1.3-1-1.7
		c2.6-2.6,5.1-6.5,6.6-10.6L369.1,235.3z M378.2,241.4v15.1c0,1-0.2,1.6-0.9,1.8c-0.7,0.3-1.8,0.4-3.4,0.4c-0.1-0.5-0.4-1.3-0.6-1.8
		c1.3,0.1,2.4,0,2.8,0s0.4-0.1,0.4-0.4v-15.1h-4.2c-0.8,1.8-1.6,3.3-2.6,4.6c-0.3-0.3-1-0.8-1.4-1.1c2-2.5,3.4-6.3,4.3-10.2l1.7,0.4
		c-0.4,1.6-0.8,3.1-1.4,4.6h11l0.3-0.1l1.2,0.3c-0.3,1.9-0.8,4.1-1.2,5.5l-1.5-0.3c0.2-1,0.5-2.4,0.7-3.8h-5.2V241.4z M374,246.1
		c-0.8,3.5-2.3,6.8-3.9,9c-0.3-0.2-1.1-0.7-1.5-1c1.7-2,2.9-5.2,3.7-8.3L374,246.1z M381.9,245.6c1.5,2.8,2.9,6.4,3.4,8.8l-1.7,0.6
		c-0.4-2.4-1.8-6.1-3.3-8.9L381.9,245.6z"/>
</g>
<g class="st5">
	<path class="st6" d="M170,174.2h-6.6v9.3c0,1.2-0.3,1.7-1.2,2c-0.8,0.3-2.3,0.3-4.8,0.3c-0.1-0.5-0.4-1.2-0.6-1.7
		c1.9,0.1,3.7,0.1,4.2,0c0.5,0,0.7-0.1,0.7-0.6v-9.3h-14.2v-1.7h14.2v-3.7h1.7v3.7h6.6L170,174.2L170,174.2z M149.8,170.7h-1.7v-5
		h10.3c-0.3-0.9-0.9-1.9-1.4-2.8l1.6-0.4c0.6,1,1.3,2.3,1.6,3.2h9v5h-1.8v-3.4h-17.7L149.8,170.7L149.8,170.7z M152,175.6
		c1.7,1.6,3.5,3.8,4.3,5.3l-1.4,1c-0.8-1.5-2.5-3.8-4.2-5.5L152,175.6z"/>
	<path class="st6" d="M178.2,176.4v7.5c0,1-0.2,1.5-0.8,1.7c-0.6,0.3-1.6,0.3-3.4,0.3c-0.1-0.4-0.3-1.2-0.5-1.6c1.2,0,2.3,0,2.6,0
		s0.5-0.1,0.5-0.5v-6.9l-3.4,1.1l-0.5-1.7c1.1-0.3,2.4-0.7,3.9-1.1v-5.8h-3.5v-1.6h3.5v-5.2h1.7v5.2h3v1.6h-3v5.2l2.9-0.9l0.2,1.6
		L178.2,176.4z M195.2,176.9h-1.7v-1.7h-8.7c-0.1,3.5-0.8,7.9-3.5,10.8c-0.2-0.4-1-1-1.3-1.2c2.8-3.1,3.2-7.6,3.2-11V167h12.1v9.9
		H195.2z M193.5,173.6v-5h-8.7v5H193.5z M189.2,167c-0.4-1-1.5-2.6-2.4-3.7l1.5-0.6c1,1.1,2.1,2.6,2.5,3.6L189.2,167z"/>
	<path class="st6" d="M201.4,177.9h-1.5v-12.4h1.5V177.9z M203.9,162.6h1.6v10.3c0,5-0.5,9.7-4.3,13.1c-0.3-0.4-0.9-0.9-1.3-1.1
		c3.5-3.2,4-7.5,4-12.1V162.6z M214.9,165.5v3.3h5.6v11.4c0,0.8-0.2,1.3-0.7,1.5c-0.6,0.3-1.5,0.3-2.9,0.3c-0.1-0.5-0.3-1.1-0.5-1.5
		c1.1,0,1.9,0,2.2,0s0.4-0.1,0.4-0.4v-9.9h-4V186h-1.6v-15.6h-3.7v12h-1.6v-13.5h5.2v-3.3h-6.2V164h14.4v1.6L214.9,165.5
		L214.9,165.5z"/>
	<path class="st6" d="M231.5,183.3c-0.4-0.6-1-1.3-1.7-2.1c-1.2,2.1-2.6,3.7-4.3,4.8c-0.2-0.4-0.7-1-1-1.4c1.7-0.9,3.1-2.5,4.1-4.6
		c-1.1-1-2.4-2.1-3.5-2.9c0.6-2,1.2-4.7,1.7-7.6h-2.3v-1.6h2.6c0.3-1.9,0.6-3.7,0.7-5.3l1.6,0.1c-0.2,1.6-0.5,3.4-0.8,5.3h2.9
		l0.3-0.1l1,0.1c-0.3,4.9-1,8.7-2.2,11.6c0.9,0.8,1.7,1.7,2.2,2.4L231.5,183.3z M228.3,169.5c-0.5,2.5-1,5-1.5,7
		c0.8,0.6,1.7,1.3,2.5,2c1-2.4,1.5-5.4,1.8-9H228.3z M247.5,183.6v1.6h-15.8v-1.6h3V164h10.6v19.5h2.2V183.6z M236.3,165.6v4.7h7.3
		v-4.7H236.3z M236.3,176.8h7.3v-5h-7.3V176.8z M236.3,183.6h7.3v-5.2h-7.3V183.6z"/>
</g>
<path class="st1" d="M329.1,173.5c-2.1,8-10.4,12.8-18.4,10.6c-8-2.1-12.8-10.4-10.6-18.4c2.1-8,19.7-25.7,24.5-24.1
	C327.6,142.6,331.2,165.5,329.1,173.5z"/>
<path class="st1" d="M308.6,183.3c-7.5,2.8-15.9-0.8-19.1-8.2c-3.2-7.6-0.3-32.4,4.6-34.1c1.8-0.6,9,5.1,14.9,11.5"/>
<path class="st1" d="M303,146.6c3-4.4,6-7.5,8-7.4c1.1,0.1,3,2.8,5,6.6"/>
<path class="st1" d="M313.1,185.1v29c0,2.2-1.8,4-4,4l0,0c-2.2,0-4-1.8-4-4v-29"/>
<path class="st1" d="M313.6,208.6c0,0,13-16,27-14c0,0-13-8.9-27,4.1"/>
<path class="st1" d="M304.6,208.6c0,0-13-16-27-14c0,0,13-8.9,27,4.1"/>
</svg>
